<svg id="Group_2203" data-name="Group 2203" xmlns="http://www.w3.org/2000/svg" width="64.938" height="62.409" viewBox="0 0 64.938 62.409">
  <g id="Group_2202" data-name="Group 2202">
    <path id="Path_20876" data-name="Path 20876" d="M60.124,9.39h-9.5V6.656a2.256,2.256,0,0,0-4.512,0V9.39H23.9V6.656a2.256,2.256,0,1,0-4.512,0V9.39H9.814A7.322,7.322,0,0,0,2.5,16.7V59.5a7.322,7.322,0,0,0,7.314,7.314h50.31A7.322,7.322,0,0,0,67.438,59.5V16.636A7.308,7.308,0,0,0,60.124,9.39Zm2.8,50.037a2.758,2.758,0,0,1-2.8,2.734H9.814a2.8,2.8,0,0,1-2.8-2.734V30.444H62.859V59.427Zm0-33.563H7.012V16.636a2.758,2.758,0,0,1,2.8-2.734h9.5v2.734a2.256,2.256,0,0,0,4.512,0V13.9H46.043v2.734a2.256,2.256,0,0,0,4.512,0V13.9h9.5a2.8,2.8,0,0,1,2.8,2.734v9.228Z" transform="translate(-2.5 -4.4)"/>
    <path id="Path_20877" data-name="Path 20877" d="M40.616,70.36a2.166,2.166,0,0,0,3.281,0L56.2,57.235a2.215,2.215,0,0,0-.137-3.213,2.274,2.274,0,0,0-3.213.137l-10.6,11.347-5.674-6.084A2.274,2.274,0,1,0,33.234,62.5Z" transform="translate(-12.043 -19.913)"/>
  </g>
</svg>
