<svg height='100px' width='100px'  fill="#000000" xmlns="http://www.w3.org/2000/svg" viewBox="0 0 18 21" x="0px" y="0px"><path fill="#000000" d="M211,1290.58579 L213.292893,1288.29289 C213.683418,1287.90237 214.316582,1287.90237 214.707107,1288.29289 C215.097631,1288.68342 215.097631,1289.31658 214.707107,1289.70711 L210.707107,1293.70711 C210.316582,1294.09763 209.683418,1294.09763 209.292893,1293.70711 L205.292893,1289.70711 C204.902369,1289.31658 204.902369,1288.68342 205.292893,1288.29289 C205.683418,1287.90237 206.316582,1287.90237 206.707107,1288.29289 L209,1290.58579 L209,1281 C209,1280.44772 209.447715,1280 210,1280 C210.552285,1280 211,1280.44772 211,1281 L211,1290.58579 Z M202,1301 C201.447715,1301 201,1300.55228 201,1300 C201,1299.44772 201.447715,1299 202,1299 L218,1299 C218.552285,1299 219,1299.44772 219,1300 C219,1300.55228 218.552285,1301 218,1301 L202,1301 Z" transform="translate(-201 -1280)"></path></svg>