<svg xmlns="http://www.w3.org/2000/svg" width="1920" height="475" viewBox="0 0 1920 475">
  <g id="Icons" transform="translate(-19.637 -42.846)" opacity="0.6">
    <g id="Group_1031" data-name="Group 1031" transform="translate(19.637 42.846)">
      <g id="Group_466" data-name="Group 466" transform="translate(0 0)">
        <g id="Group_357" data-name="Group 357" transform="translate(386.651)">
          <g id="Group_356" data-name="Group 356">
            <g id="Group_355" data-name="Group 355">
              <g id="Group_354" data-name="Group 354">
                <g id="Group_353" data-name="Group 353">
                  <path id="Path_20092" data-name="Path 20092" d="M349.4,77.521H274.823l1.1-.6c7.273-3.952,13.067-10.389,18.671-16.612,8.518-9.462,16.563-18.4,29.013-18.4a16.834,16.834,0,0,1,16.815,16.815c0,.157-.006.313-.012.469l-.023.686-.484-.349a6.839,6.839,0,0,0-10.841,5.553c0,10.338,20.15,11.787,20.354,11.8Zm-72.108-.638h67.335a43.917,43.917,0,0,1-5.652-1.4c-6.9-2.251-10.546-5.846-10.546-10.4A7.493,7.493,0,0,1,335.91,57.6a7.418,7.418,0,0,1,3.875,1.088,16.2,16.2,0,0,0-16.177-16.14c-12.166,0-20.12,8.835-28.54,18.188C289.7,66.695,284.162,72.85,277.288,76.883Z" transform="translate(-274.823 -41.909)" fill="#98d09a"/>
                </g>
              </g>
            </g>
          </g>
        </g>
        <g id="Group_363" data-name="Group 363" transform="translate(631.152 338.136)">
          <g id="Group_362" data-name="Group 362">
            <g id="Group_361" data-name="Group 361">
              <g id="Group_360" data-name="Group 360">
                <g id="Group_359" data-name="Group 359">
                  <g id="Group_358" data-name="Group 358">
                    <path id="Path_20093" data-name="Path 20093" d="M305.6,681.254h-3.862L302,654.979l-14.5,12.426,11.031-19.414-1.679-20.609,8.932,18.83,20.68,9.934L305.319,653.7Zm-3.218-.638h2.574l-.28-27.637,18.091,2.1-16.994-8.162-1.829,6.408h-.537l-4.48-4.729-9.064,15.953,12.793-10.964Zm-2.91-32.377,4.041,4.267,1.6-5.6Zm-1.7-17.433,1.374,16.854,5.953-1.409Z" transform="translate(-287.503 -627.382)" fill="#98d09a"/>
                  </g>
                </g>
              </g>
            </g>
          </g>
        </g>
        <g id="Group_368" data-name="Group 368" transform="translate(1229.727 186.715)">
          <g id="Group_367" data-name="Group 367">
            <g id="Group_366" data-name="Group 366">
              <g id="Group_365" data-name="Group 365">
                <g id="Group_364" data-name="Group 364">
                  <path id="Path_20094" data-name="Path 20094" d="M551.523,213.122v4.36h-3.994v1.071h3.994v5.755h-1.88v1.136h1.88v5.722h-3.994V232.3h3.994v5.759h-1.88v1.06h1.88v5.822h-3.994v1.013h3.994v5.2a7.418,7.418,0,1,1-7.517,0V213.122h7.517m.637-.638h-8.792V250.8a8.056,8.056,0,1,0,8.792,0V212.484Z" transform="translate(-539.708 -212.484)" fill="#98d09a"/>
                </g>
              </g>
            </g>
          </g>
        </g>
        <g id="Group_384" data-name="Group 384" transform="translate(1366.174 360.379)">
          <g id="Group_373" data-name="Group 373" transform="translate(10.787 28.968)">
            <g id="Group_372" data-name="Group 372">
              <g id="Group_371" data-name="Group 371">
                <g id="Group_370" data-name="Group 370">
                  <g id="Group_369" data-name="Group 369">
                    <path id="Path_20095" data-name="Path 20095" d="M299.026,270.373v2.168l1.678-.969.72,1.248-2.4,1.383v4.4l3.808-2.2v-2.769h1.44v1.937l1.877-1.083.72,1.247-1.877,1.084,1.678.969-.72,1.247-2.4-1.385-3.807,2.2,3.807,2.2,2.4-1.385.72,1.247-1.678.969,1.877,1.084-.72,1.247-1.877-1.083v1.937h-1.44v-2.769l-3.808-2.2v4.4l2.4,1.384-.72,1.248-1.678-.969v2.168h-1.44v-2.168l-1.678.969-.72-1.248,2.4-1.383v-4.4l-3.808,2.2v2.769h-1.44v-1.937l-1.876,1.083-.72-1.247,1.876-1.084-1.677-.969.72-1.247,2.4,1.385,3.808-2.2-3.808-2.2-2.4,1.385-.72-1.247,1.677-.969-1.876-1.084.72-1.247,1.876,1.083v-1.937h1.44V276.4l3.808,2.2v-4.4l-2.4-1.383.72-1.248,1.678.969v-2.168h1.44m.637-.637h-2.715v1.7l-.721-.417-.552-.319-.319.553-.72,1.247-.286.495H291.7v1.47l-.921-.531-.552-.319-.318.552-.72,1.247-.319.552.552.319.921.532-.722.417-.552.318.319.552.72,1.248.285.494-.285.5-.72,1.248-.319.552.552.318.722.417-.921.532-.552.319.319.551.72,1.248.318.552.552-.319.921-.531v1.47h2.649l.286.495.72,1.247.319.552.552-.318.721-.417v1.7h2.715v-1.7l.723.417.552.318.318-.552.72-1.247.286-.495h2.65v-1.47l.92.531.552.319.319-.552.72-1.248.318-.551-.551-.319-.921-.532.722-.417.551-.318-.318-.552-.72-1.248-.286-.5.286-.494.72-1.248.318-.552-.551-.318-.722-.417.921-.532.551-.319-.318-.552-.72-1.247-.319-.552-.552.319-.92.531V273h-2.65l-.286-.495-.72-1.247-.318-.553-.552.319-.723.417v-1.7Zm-5.247,6.3V273.11l.454.262,2.078,1.2V277.5l-2.532-1.462Zm5.247-1.462,2.08-1.2.454-.262v2.924l-2.534,1.462v-2.924Zm-9.136,5.275.452-.261,2.079-1.2,2.533,1.462-2.533,1.463-2.079-1.2-.452-.262Zm10.494,0,2.533-1.462,2.079,1.2.453.261-.453.262-2.079,1.2-2.533-1.463Zm-1.358,5.276V282.2l2.534,1.462v2.924l-.454-.262-2.08-1.2Zm-5.247-1.462,2.532-1.462v2.924l-2.078,1.2-.454.262v-2.924Z" transform="translate(-288.871 -269.736)" fill="#98d09a"/>
                  </g>
                </g>
              </g>
            </g>
          </g>
          <g id="Group_378" data-name="Group 378">
            <g id="Group_377" data-name="Group 377">
              <g id="Group_376" data-name="Group 376">
                <g id="Group_375" data-name="Group 375">
                  <g id="Group_374" data-name="Group 374">
                    <path id="Path_20096" data-name="Path 20096" d="M290.514,241.666l.991.836-2.94,3.492v3.548l3.072-1.774,1.554-4.293,1.219.441-1.031,2.846,1.112-.642.649,1.122-1.113.643,2.98.53-.226,1.276-4.5-.8-3.071,1.774,3.072,1.774,4.5-.8.228,1.275-2.98.531,1.112.642-.649,1.122-1.112-.642,1.031,2.847-1.219.441-1.554-4.294-3.072-1.774v3.549l2.94,3.493-.991.834-1.949-2.315v1.284h-1.3v-1.284l-1.95,2.316-.991-.836,2.941-3.493v-3.548l-3.073,1.774-1.554,4.294-1.22-.441,1.032-2.847-1.112.642-.649-1.122,1.112-.642-2.98-.531.228-1.275,4.5.8,3.072-1.774-3.072-1.774-4.5.8-.226-1.276,2.98-.53-1.113-.643.649-1.122,1.112.642-1.032-2.846,1.22-.441,1.554,4.293,3.073,1.774v-3.548l-2.941-3.492.991-.836,1.95,2.316V242.7h1.3v1.284l1.949-2.316m-.077-.9-.411.488-.824.979v-.175h-2.571v.175l-.825-.979-.411-.488-.488.411-.991.835-.487.411.41.487,2.792,3.315v2.211l-1.916-1.106-1.475-4.074-.217-.6-.6.217-1.22.442-.6.217.217.6.436,1.2-.151-.087-.318.552-.649,1.122-.319.552.152.088-1.26.224-.627.112.111.627.226,1.276.112.628.628-.112,4.268-.759,1.914,1.106-1.915,1.105-4.267-.759-.627-.111-.112.627L278.2,252.8l-.112.628.628.112,1.261.225-.152.087.319.552.649,1.122.318.552.151-.087-.436,1.2-.217.6.6.217,1.22.442.6.217.217-.6L284.715,254l1.916-1.106V255.1l-2.792,3.315-.41.487.487.411.991.835.488.411.411-.488.825-.979v.175H289.2V259.1l.824.979.41.487.488-.41.991-.834.488-.41-.41-.488L289.2,255.1v-2.211l1.914,1.1,1.476,4.075.217.6.6-.217,1.22-.442.6-.217-.217-.6-.436-1.2.151.087.318-.552.649-1.122.319-.552-.152-.087,1.261-.225.627-.112-.112-.628-.227-1.275-.113-.627-.627.111-4.267.759-1.914-1.105,1.914-1.106,4.268.759.628.112.111-.628.227-1.276.111-.627-.627-.112-1.26-.224.152-.088-.319-.552-.649-1.122-.318-.552-.151.087.436-1.2.217-.6-.6-.217-1.22-.442-.6-.217-.217.6-1.475,4.074-1.915,1.106v-2.211l2.791-3.315.41-.487-.487-.411-.992-.835-.487-.411Z" transform="translate(-278.084 -240.768)" fill="#98d09a"/>
                  </g>
                </g>
              </g>
            </g>
          </g>
          <g id="Group_383" data-name="Group 383" transform="translate(29.271 7.705)">
            <g id="Group_382" data-name="Group 382">
              <g id="Group_381" data-name="Group 381">
                <g id="Group_380" data-name="Group 380">
                  <g id="Group_379" data-name="Group 379">
                    <path id="Path_20097" data-name="Path 20097" d="M317.444,249.11v4.053l1.45-2.211,1.084.71-2.534,3.865v1.983l1.718-.992,2.079-4.127,1.157.584-1.19,2.361,3.51-2.026.648,1.122-3.511,2.027,2.641.15-.073,1.294-4.614-.262-1.717.991,1.718.992,4.613-.263.073,1.294-2.64.15,3.51,2.026-.648,1.123-3.51-2.027,1.19,2.363-1.157.583-2.08-4.127-1.717-.992v1.985l2.534,3.863-1.084.71-1.45-2.211v4.053h-1.3V264.1l-1.45,2.211-1.084-.71,2.534-3.863v-1.984l-1.716.991-2.08,4.127-1.157-.583,1.19-2.363-3.51,2.027-.648-1.123,3.509-2.026-2.64-.15.074-1.294,4.613.263,1.718-.992-1.717-.991-4.614.262-.074-1.294,2.641-.15-3.51-2.027.648-1.122,3.51,2.026-1.19-2.361,1.157-.584,2.079,4.127,1.717.991v-1.982l-2.534-3.865,1.084-.71,1.45,2.211V249.11h1.3m.637-.637H315.51v2.555l-.28-.426-.349-.532-.533.349-1.084.71-.534.349.35.534,2.43,3.705v.688l-.6-.344L312.92,252.1l-.287-.569-.569.287-1.157.584-.569.287.286.569.23.455-1.661-.959-.552-.318-.319.551-.648,1.123-.319.552.552.319,1.662.959-.51.029-.636.036.036.636.073,1.294.036.637.637-.036,4.424-.252.6.344-.6.345-4.422-.253-.637-.036-.036.636-.074,1.294-.036.637.636.036.51.029-1.662.959-.552.319.319.552.648,1.123.319.551.552-.318,1.661-.96-.23.457-.286.569.569.287,1.157.584.569.287.287-.57,1.994-3.957.6-.344v.689l-2.43,3.7-.35.534.534.349,1.084.71.533.349.349-.532.28-.426v2.555h2.571v-2.555l.28.426.349.532.533-.349,1.084-.71.534-.349-.35-.534-2.43-3.7v-.69l.6.345,1.994,3.957.286.57.57-.287,1.157-.584.569-.287-.287-.569-.23-.457,1.662.96.552.318.319-.551.648-1.123.319-.552-.552-.319-1.662-.959.51-.029.636-.036-.036-.637-.074-1.294-.036-.636-.637.036-4.422.253-.6-.345.6-.344,4.424.252.637.036.036-.637.073-1.294.036-.636-.636-.036-.51-.029,1.662-.959.552-.319-.319-.552-.648-1.123-.319-.551-.552.318-1.661.959.229-.455.287-.569-.569-.287-1.157-.584-.57-.287-.286.569-1.994,3.957-.6.345v-.689l2.43-3.705.35-.534-.534-.349-1.084-.71-.533-.349-.349.532-.28.426v-2.555Z" transform="translate(-307.355 -248.473)" fill="#98d09a"/>
                  </g>
                </g>
              </g>
            </g>
          </g>
        </g>
        <g id="Group_405" data-name="Group 405" transform="translate(0 239.165)">
          <g id="Group_389" data-name="Group 389">
            <g id="Group_388" data-name="Group 388">
              <g id="Group_387" data-name="Group 387">
                <g id="Group_386" data-name="Group 386">
                  <g id="Group_385" data-name="Group 385">
                    <path id="Path_20098" data-name="Path 20098" d="M232.367,533.98l3.315,9.5,7.195.025,3.327-9.519,1.257.157.841,9.538,8.018,3.728-.274,1.236h-8.964l-3.824,13.515,2.607,6.7-.07.027.1.084,3.3,16.949-1.2.436-7.172-13.058h-3.176l-7.171,13.058-1.2-.455,3.825-16.949.055-.043-.039-.012,2.15-6.492-4.027-13.757h-8.717l-.281-1.232,7.736-3.662,1.132-9.627,1.255-.14m1.975,9.492-2.269-6.429-.755,6.418,3.024.011m12.645.044-.553-6.266-2.186,6.256,2.739.01m-3.021,3.05,2.315-1.811h-2.315v1.811m-4.68.659,2.5-2.47h-5l2.5,2.47m-4.681-.783v-1.687h-1.876l1.876,1.687m-2.395.9h1.461l-1.981-1.781.52,1.781m18.583,0h2.323l-3.824-1.778,1.5,1.778m-9.784,0h1.666l.015-1.66-1.681,1.66m-5.107,0h1.66l-1.66-1.639v1.639m-10.539,0h1.949l1.445-1.636-3.394,1.636m3.679,0h1.82l-.453-1.548-1.367,1.548m18.406,0H249.1l-1.235-1.463-.414,1.463m-2.374,0H246.1l.292-1.034-1.321,1.034m-5.847,10.55,5.487-5.622,1.024-3.632h-13.15l1.059,3.627,5.58,5.627M236.2,561l2.147-2.2-3.941-3.942L236.2,561m6.068-.042,1.712-6.074-3.837,3.931,2.125,2.143m-5.638,1.456h5.227l.023-.081-2.616-2.617-2.634,2.7m2.6,5.3,2.2-4.008h-4.4l2.2,4.008m1.083.721h4l-1.659-4.263-2.341,4.263m-5.689,0h3.538l-2.232-4.064-1.306,4.064m6.957,3.554h3.586l-.44-2.258h-4.388l1.242,2.258m-7.837,0h3.138l1.24-2.258h-3.868l-.51,2.258m4.616,0h1.753l-.876-1.6-.877,1.6m5.221,3.636h2.3l-.456-2.339h-3.126l1.287,2.339m-10.658,0h1.963l1.285-2.339h-2.72l-.528,2.339m14.213,6.464-1.007-5.168h-1.835l2.842,5.168m-15.582-.4,2.62-4.771h-1.543l-1.077,4.771m14.218-48.411-.17.486-3.177,9.09-6.29-.022-3.167-9.07-.167-.48-.5.057-1.255.14-.5.056-.059.5-1.091,9.276-7.417,3.511-.462.219.114.5.281,1.232.113.5h8.747l3.837,13.108-2.087,6.3-.2.612.055.017-3.71,16.436-.122.54.518.2,1.2.455.518.2.267-.486,6.989-12.728h2.422l6.99,12.728.262.478.514-.185,1.2-.436.513-.186-.1-.536L246.6,569.25l.018-.007-.078-.3-.019-.1-.044-.224-.032-.027-2.517-6.467,3.634-12.845h8.994l.11-.5.274-1.236.111-.5-.465-.216-7.683-3.573-.809-9.171-.046-.513-.51-.063-1.258-.157-.51-.064Zm-13.737,9.54.351-2.982,1.054,2.987-1.4-.005Zm13.11.046.915-2.617.231,2.621-1.146,0Zm-6.809,2.52h1.9l-.949.938-.95-.938Zm-4.9,3.887H244.9l-.752,2.665-4.921,5.042-5.009-5.052-.775-2.655Zm3.064,10.495-.79-2.705,1.735,1.736-.945.969Zm4.531-.962,1.65-1.691-.736,2.612-.914-.921Zm-2.894,2.965,1.126-1.154,1.154,1.154Zm-.036,2.571h2.25L239.23,566.4l-1.126-2.047Zm3.286,3.454,1.165-2.121.826,2.121Zm-5.891,0,.585-1.821,1,1.821Zm5.918,2.572H244.2l.191.982h-2.435l-.541-.982Zm-6.654,0h2.282l-.54.982h-1.964l.222-.982Zm8.609,3.554H244.9l.207,1.064h-1.144l-.586-1.064Zm-9.411,0h1.132l-.584,1.064h-.788l.24-1.064Zm11.411,3.636h.232l.127.652-.359-.652Z" transform="translate(-221.509 -533.286)" fill="#98d09a"/>
                  </g>
                </g>
              </g>
            </g>
          </g>
          <g id="Group_394" data-name="Group 394" transform="translate(31.955 15.085)">
            <g id="Group_393" data-name="Group 393">
              <g id="Group_392" data-name="Group 392">
                <g id="Group_391" data-name="Group 391">
                  <g id="Group_390" data-name="Group 390">
                    <path id="Path_20099" data-name="Path 20099" d="M255.5,549.008v2.83h-1.4v-2.83h1.4m.637-.637h-2.676v4.105h2.676v-4.105Z" transform="translate(-253.464 -548.371)" fill="#98d09a"/>
                  </g>
                </g>
              </g>
            </g>
          </g>
          <g id="Group_399" data-name="Group 399" transform="translate(16.732 15.085)">
            <g id="Group_398" data-name="Group 398">
              <g id="Group_397" data-name="Group 397">
                <g id="Group_396" data-name="Group 396">
                  <g id="Group_395" data-name="Group 395">
                    <path id="Path_20100" data-name="Path 20100" d="M240.28,549.008v2.83h-1.4v-2.83h1.4m.637-.637h-2.676v4.105h2.676v-4.105Z" transform="translate(-238.241 -548.371)" fill="#98d09a"/>
                  </g>
                </g>
              </g>
            </g>
          </g>
          <g id="Group_404" data-name="Group 404" transform="translate(1.276 15.085)">
            <g id="Group_403" data-name="Group 403">
              <g id="Group_402" data-name="Group 402">
                <g id="Group_401" data-name="Group 401">
                  <g id="Group_400" data-name="Group 400">
                    <path id="Path_20101" data-name="Path 20101" d="M224.823,549.008v2.83h-1.4v-2.83h1.4m.638-.637h-2.676v4.105h2.676v-4.105Z" transform="translate(-222.785 -548.371)" fill="#98d09a"/>
                  </g>
                </g>
              </g>
            </g>
          </g>
        </g>
        <g id="Group_449" data-name="Group 449" transform="translate(80 175.222)">
          <g id="Group_442" data-name="Group 442">
            <g id="Group_411" data-name="Group 411" transform="translate(25.092 13.947)">
              <g id="Group_410" data-name="Group 410">
                <g id="Group_409" data-name="Group 409">
                  <g id="Group_408" data-name="Group 408">
                    <g id="Group_407" data-name="Group 407">
                      <g id="Group_406" data-name="Group 406">
                        <path id="Path_20102" data-name="Path 20102" d="M128.952,168.349l7.73,12.84H121.518l-7.73-12.84h15.164m.361-.637H112.661l.581.966,7.73,12.84.186.308H137.81l-.582-.966-7.73-12.84-.185-.308Z" transform="translate(-112.661 -167.712)" fill="#98d09a"/>
                      </g>
                    </g>
                  </g>
                </g>
              </g>
            </g>
            <g id="Group_417" data-name="Group 417" transform="translate(41.642 13.947)">
              <g id="Group_416" data-name="Group 416">
                <g id="Group_415" data-name="Group 415">
                  <g id="Group_414" data-name="Group 414">
                    <g id="Group_413" data-name="Group 413">
                      <g id="Group_412" data-name="Group 412">
                        <path id="Path_20103" data-name="Path 20103" d="M145.5,168.349l7.729,12.84H138.069l-7.73-12.84H145.5m.36-.637H129.211l.581.966,7.73,12.84.186.308H154.36l-.581-.966-7.73-12.84-.186-.308Z" transform="translate(-129.211 -167.712)" fill="#98d09a"/>
                      </g>
                    </g>
                  </g>
                </g>
              </g>
            </g>
            <g id="Group_423" data-name="Group 423" transform="translate(8.397 13.947)">
              <g id="Group_422" data-name="Group 422">
                <g id="Group_421" data-name="Group 421">
                  <g id="Group_420" data-name="Group 420">
                    <g id="Group_419" data-name="Group 419">
                      <g id="Group_418" data-name="Group 418">
                        <path id="Path_20104" data-name="Path 20104" d="M112.258,168.349l7.73,12.84H104.823l-7.73-12.84h15.165m.36-.637H95.966l.581.966,7.73,12.84.186.308h16.653l-.582-.966-7.73-12.84-.186-.308Z" transform="translate(-95.966 -167.712)" fill="#98d09a"/>
                      </g>
                    </g>
                  </g>
                </g>
              </g>
            </g>
            <g id="Group_429" data-name="Group 429" transform="translate(16.695)">
              <g id="Group_428" data-name="Group 428">
                <g id="Group_427" data-name="Group 427">
                  <g id="Group_426" data-name="Group 426">
                    <g id="Group_425" data-name="Group 425">
                      <g id="Group_424" data-name="Group 424">
                        <path id="Path_20105" data-name="Path 20105" d="M120.556,154.4l7.729,12.839H113.122l-7.73-12.839h15.164m.36-.637H104.264l.582.966,7.729,12.839.186.309h16.652l-.581-.966-7.73-12.84-.186-.308Z" transform="translate(-104.264 -153.765)" fill="#98d09a"/>
                      </g>
                    </g>
                  </g>
                </g>
              </g>
            </g>
            <g id="Group_435" data-name="Group 435" transform="translate(33.245)">
              <g id="Group_434" data-name="Group 434">
                <g id="Group_433" data-name="Group 433">
                  <g id="Group_432" data-name="Group 432">
                    <g id="Group_431" data-name="Group 431">
                      <g id="Group_430" data-name="Group 430">
                        <path id="Path_20106" data-name="Path 20106" d="M137.106,154.4l7.73,12.839H129.672l-7.73-12.839h15.164m.36-.637H120.814l.582.966,7.73,12.839.185.309h16.652l-.581-.966-7.73-12.84-.186-.308Z" transform="translate(-120.814 -153.765)" fill="#98d09a"/>
                      </g>
                    </g>
                  </g>
                </g>
              </g>
            </g>
            <g id="Group_441" data-name="Group 441">
              <g id="Group_440" data-name="Group 440">
                <g id="Group_439" data-name="Group 439">
                  <g id="Group_438" data-name="Group 438">
                    <g id="Group_437" data-name="Group 437">
                      <g id="Group_436" data-name="Group 436">
                        <path id="Path_20107" data-name="Path 20107" d="M103.861,154.4l7.73,12.839H96.427L88.7,154.4h15.164m.361-.637H87.569l.582.966,7.73,12.839.186.309h16.652l-.582-.966-7.73-12.84-.185-.308Z" transform="translate(-87.569 -153.765)" fill="#98d09a"/>
                      </g>
                    </g>
                  </g>
                </g>
              </g>
            </g>
          </g>
          <g id="Group_448" data-name="Group 448" transform="translate(3.318 6.674)">
            <g id="Group_447" data-name="Group 447">
              <g id="Group_446" data-name="Group 446">
                <g id="Group_445" data-name="Group 445">
                  <g id="Group_444" data-name="Group 444">
                    <g id="Group_443" data-name="Group 443">
                      <path id="Path_20108" data-name="Path 20108" d="M91.524,162.688l1.44,2.337v14.724h9.088l.9,1.44H91.524v-18.5m-.637-2.249v21.387h13.224l-.614-.976-.9-1.441-.188-.3H93.6V164.844l-.095-.154-1.44-2.336-1.18-1.915Z" transform="translate(-90.887 -160.439)" fill="#98d09a"/>
                    </g>
                  </g>
                </g>
              </g>
            </g>
          </g>
        </g>
        <g id="Group_465" data-name="Group 465" transform="translate(325.923 431.416)">
          <g id="Group_454" data-name="Group 454" transform="translate(27.542)">
            <g id="Group_453" data-name="Group 453">
              <g id="Group_452" data-name="Group 452">
                <g id="Group_451" data-name="Group 451">
                  <g id="Group_450" data-name="Group 450">
                    <path id="Path_20109" data-name="Path 20109" d="M255.606,415.785l11.3,31.8h-9.864v9.245h-3.315v-9.245h-9.419l11.3-31.8m0-1.9-.6,1.69-11.3,31.8-.3.85h9.684v9.246h4.591v-9.246h10.129l-.3-.85-11.3-31.8-.6-1.69Z" transform="translate(-243.404 -413.881)" fill="#98d09a"/>
                  </g>
                </g>
              </g>
            </g>
          </g>
          <g id="Group_459" data-name="Group 459" transform="translate(0 5.966)">
            <g id="Group_458" data-name="Group 458">
              <g id="Group_457" data-name="Group 457">
                <g id="Group_456" data-name="Group 456">
                  <g id="Group_455" data-name="Group 455">
                    <path id="Path_20110" data-name="Path 20110" d="M230.689,420.485a14.185,14.185,0,0,1,1.637,28.276v8.066h-3.275v-8.066a14.185,14.185,0,0,1,1.638-28.276m0-.638a14.824,14.824,0,0,0-2.275,29.472v8.146h4.549v-8.146a14.824,14.824,0,0,0-2.274-29.472Z" transform="translate(-215.862 -419.847)" fill="#98d09a"/>
                  </g>
                </g>
              </g>
            </g>
          </g>
          <g id="Group_464" data-name="Group 464" transform="translate(49.628 5.966)">
            <g id="Group_463" data-name="Group 463">
              <g id="Group_462" data-name="Group 462">
                <g id="Group_461" data-name="Group 461">
                  <g id="Group_460" data-name="Group 460">
                    <path id="Path_20111" data-name="Path 20111" d="M280.317,420.485a14.185,14.185,0,0,1,1.658,28.273v8.069h-3.317v-8.069a14.185,14.185,0,0,1,1.659-28.273m0-.638a14.823,14.823,0,0,0-2.3,29.468v8.15h4.591v-8.15a14.823,14.823,0,0,0-2.3-29.468Z" transform="translate(-265.49 -419.847)" fill="#98d09a"/>
                  </g>
                </g>
              </g>
            </g>
          </g>
        </g>
      </g>
      <g id="Group_627" data-name="Group 627" transform="translate(44 9.249)">
        <g id="Group_537" data-name="Group 537" transform="translate(0 396.375)">
          <g id="Group_471" data-name="Group 471">
            <g id="Group_470" data-name="Group 470">
              <g id="Group_469" data-name="Group 469">
                <g id="Group_468" data-name="Group 468">
                  <g id="Group_467" data-name="Group 467">
                    <path id="Path_20112" data-name="Path 20112" d="M36,513.273l0,2.148H35.22v34.94h-13.3V517.15l.573-.01-.017-1.678H13.728l-.017,1.678.573.01v33.211H11.052v-34.94h-.778v-2.148H36m-9.547,11.3h4.312V517.9H26.452v6.677m0,11.132h4.312v-6.678H26.452v6.678m0,10.793h4.312v-6.677H26.452V546.5m10.183-33.867h-27v3.423h.778V551h4.507V516.524l-.567-.01,0-.414h7.485l0,.414-.567.01V551H35.858V516.059h.784v-.639l0-2.148v-.636Zm-9.546,5.9h3.037v5.4H27.089v-5.4Zm0,11.132h3.037v5.4H27.089v-5.4Zm0,10.793h3.037v5.4H27.089v-5.4Z" transform="translate(-9.637 -512.636)" fill="#98d09a"/>
                  </g>
                </g>
              </g>
            </g>
          </g>
          <g id="Group_476" data-name="Group 476" transform="translate(4.649 25.42)">
            <g id="Group_475" data-name="Group 475">
              <g id="Group_474" data-name="Group 474">
                <g id="Group_473" data-name="Group 473">
                  <g id="Group_472" data-name="Group 472">
                    <rect id="Rectangle_164" data-name="Rectangle 164" width="7.632" height="0.638" fill="#98d09a"/>
                  </g>
                </g>
              </g>
            </g>
          </g>
          <g id="Group_481" data-name="Group 481" transform="translate(4.012 21.679)">
            <g id="Group_480" data-name="Group 480">
              <g id="Group_479" data-name="Group 479">
                <g id="Group_478" data-name="Group 478">
                  <g id="Group_477" data-name="Group 477">
                    <path id="Path_20113" data-name="Path 20113" d="M16.195,534.953v3.422H14.287v-3.422h1.908m.637-.638H13.649v4.7h3.183v-4.7Z" transform="translate(-13.649 -534.315)" fill="#98d09a"/>
                  </g>
                </g>
              </g>
            </g>
          </g>
          <g id="Group_486" data-name="Group 486" transform="translate(5.92 21.679)">
            <g id="Group_485" data-name="Group 485">
              <g id="Group_484" data-name="Group 484">
                <g id="Group_483" data-name="Group 483">
                  <g id="Group_482" data-name="Group 482">
                    <path id="Path_20114" data-name="Path 20114" d="M18.1,534.953v3.422H16.195v-3.422H18.1m.637-.638H15.557v4.7H18.74v-4.7Z" transform="translate(-15.557 -534.315)" fill="#98d09a"/>
                  </g>
                </g>
              </g>
            </g>
          </g>
          <g id="Group_491" data-name="Group 491" transform="translate(7.828 21.679)">
            <g id="Group_490" data-name="Group 490">
              <g id="Group_489" data-name="Group 489">
                <g id="Group_488" data-name="Group 488">
                  <g id="Group_487" data-name="Group 487">
                    <path id="Path_20115" data-name="Path 20115" d="M20.011,534.953v3.422H18.1v-3.422h1.908m.637-.638H17.465v4.7h3.183v-4.7Z" transform="translate(-17.465 -534.315)" fill="#98d09a"/>
                  </g>
                </g>
              </g>
            </g>
          </g>
          <g id="Group_496" data-name="Group 496" transform="translate(9.736 21.679)">
            <g id="Group_495" data-name="Group 495">
              <g id="Group_494" data-name="Group 494">
                <g id="Group_493" data-name="Group 493">
                  <g id="Group_492" data-name="Group 492">
                    <path id="Path_20116" data-name="Path 20116" d="M21.919,534.953v3.422H20.011v-3.422h1.908m.637-.638H19.373v4.7h3.183v-4.7Z" transform="translate(-19.373 -534.315)" fill="#98d09a"/>
                  </g>
                </g>
              </g>
            </g>
          </g>
          <g id="Group_501" data-name="Group 501" transform="translate(4.649 13.3)">
            <g id="Group_500" data-name="Group 500">
              <g id="Group_499" data-name="Group 499">
                <g id="Group_498" data-name="Group 498">
                  <g id="Group_497" data-name="Group 497">
                    <rect id="Rectangle_165" data-name="Rectangle 165" width="7.632" height="0.638" fill="#98d09a"/>
                  </g>
                </g>
              </g>
            </g>
          </g>
          <g id="Group_506" data-name="Group 506" transform="translate(4.012 9.559)">
            <g id="Group_505" data-name="Group 505">
              <g id="Group_504" data-name="Group 504">
                <g id="Group_503" data-name="Group 503">
                  <g id="Group_502" data-name="Group 502">
                    <path id="Path_20117" data-name="Path 20117" d="M16.195,522.832v3.422H14.287v-3.422h1.908m.637-.637H13.649v4.7h3.183v-4.7Z" transform="translate(-13.649 -522.195)" fill="#98d09a"/>
                  </g>
                </g>
              </g>
            </g>
          </g>
          <g id="Group_511" data-name="Group 511" transform="translate(5.92 9.559)">
            <g id="Group_510" data-name="Group 510">
              <g id="Group_509" data-name="Group 509">
                <g id="Group_508" data-name="Group 508">
                  <g id="Group_507" data-name="Group 507">
                    <path id="Path_20118" data-name="Path 20118" d="M18.1,522.832v3.422H16.195v-3.422H18.1m.637-.637H15.557v4.7H18.74v-4.7Z" transform="translate(-15.557 -522.195)" fill="#98d09a"/>
                  </g>
                </g>
              </g>
            </g>
          </g>
          <g id="Group_516" data-name="Group 516" transform="translate(7.828 9.559)">
            <g id="Group_515" data-name="Group 515">
              <g id="Group_514" data-name="Group 514">
                <g id="Group_513" data-name="Group 513">
                  <g id="Group_512" data-name="Group 512">
                    <path id="Path_20119" data-name="Path 20119" d="M20.011,522.832v3.422H18.1v-3.422h1.908m.637-.637H17.465v4.7h3.183v-4.7Z" transform="translate(-17.465 -522.195)" fill="#98d09a"/>
                  </g>
                </g>
              </g>
            </g>
          </g>
          <g id="Group_521" data-name="Group 521" transform="translate(9.736 9.559)">
            <g id="Group_520" data-name="Group 520">
              <g id="Group_519" data-name="Group 519">
                <g id="Group_518" data-name="Group 518">
                  <g id="Group_517" data-name="Group 517">
                    <path id="Path_20120" data-name="Path 20120" d="M21.919,522.832v3.422H20.011v-3.422h1.908m.637-.637H19.373v4.7h3.183v-4.7Z" transform="translate(-19.373 -522.195)" fill="#98d09a"/>
                  </g>
                </g>
              </g>
            </g>
          </g>
          <g id="Group_526" data-name="Group 526" transform="translate(4.656 33.23)">
            <g id="Group_525" data-name="Group 525">
              <g id="Group_524" data-name="Group 524">
                <g id="Group_523" data-name="Group 523">
                  <g id="Group_522" data-name="Group 522">
                    <path id="Path_20121" data-name="Path 20121" d="M21.272,546.5v1.712H14.931V546.5h6.341m.637-.637H14.293v2.986h7.616v-2.986Z" transform="translate(-14.293 -545.866)" fill="#98d09a"/>
                  </g>
                </g>
              </g>
            </g>
          </g>
          <g id="Group_531" data-name="Group 531" transform="translate(4.656 35.335)">
            <g id="Group_530" data-name="Group 530">
              <g id="Group_529" data-name="Group 529">
                <g id="Group_528" data-name="Group 528">
                  <g id="Group_527" data-name="Group 527">
                    <path id="Path_20122" data-name="Path 20122" d="M21.272,548.609v1.752H14.931v-1.752h6.341m.637-.638H14.293V551h7.616v-3.027Z" transform="translate(-14.293 -547.971)" fill="#98d09a"/>
                  </g>
                </g>
              </g>
            </g>
          </g>
          <g id="Group_536" data-name="Group 536" transform="translate(25.702)">
            <g id="Group_535" data-name="Group 535">
              <g id="Group_534" data-name="Group 534">
                <g id="Group_533" data-name="Group 533">
                  <g id="Group_532" data-name="Group 532">
                    <path id="Path_20123" data-name="Path 20123" d="M41.574,513.273l0,2.107H40.8v34.94H35.977v-3.858h2.449v-6.677H35.977v-4.116h2.449v-6.678H35.977v-4.454h2.449V517.86H35.977v-2.092h.749v-2.495h4.848m.636-.637H36.088v2.494h-.749V518.5h2.449v5.4H35.339v5.729h2.449v5.4H35.339v5.392h2.449v5.4H35.339v5.132h6.094V516.018h.785l0-.639,0-2.107,0-.636Z" transform="translate(-35.339 -512.636)" fill="#98d09a"/>
                  </g>
                </g>
              </g>
            </g>
          </g>
        </g>
        <g id="Group_558" data-name="Group 558" transform="translate(146 319.828)">
          <g id="Group_557" data-name="Group 557">
            <g id="Group_556" data-name="Group 556">
              <g id="Group_555" data-name="Group 555">
                <g id="Group_554" data-name="Group 554">
                  <path id="Path_20127" data-name="Path 20127" d="M384.22,214.7v1.145h-.569v3.927h.672v-2.929h14.461l6.1,7.155h-45.2l6.1-7.155h14.226v2.929h.757v-3.927H380.2V214.7h4.021m19.63,9.8v26.212H384.719V239.849l.435-2.143h-5.943l.435,2.143v10.863H360.719V224.5H403.85m-7.559,10.286h3.873v-6.734h-3.873v6.734m-8.011,0h3.872v-6.734H388.28v6.734m-8.011,0h3.872v-6.734h-3.872v6.734m-8.011,0h3.872v-6.734h-3.872v6.734m-8.012,0h3.872v-6.734h-3.872v6.734m32.045,11.529h3.873v-6.734h-3.873v6.734m-8.011,0h3.872v-6.734H388.28v6.734m-16.022,0h3.872v-6.734h-3.872v6.734m-8.012,0h3.872v-6.734h-3.872v6.734m19.974,1.029v.935h-4.075v-.935h4.075m0,1.934v.935h-4.075v-.935h4.075m.637-35.212h-5.3v2.143h-14.07l-.191.224-6.1,7.155-.9,1.051h1.779v26.71h20.2v-.5h3.8v.5h20.406v-26.71h1.779l-.9-1.051-6.1-7.155-.191-.224H384.857v-2.143Zm12.072,14.623h2.6v5.459h-2.6v-5.459Zm-8.011,0h2.6v5.459h-2.6v-5.459Zm-8.012,0h2.6v5.459h-2.6v-5.459Zm-8.011,0h2.6v5.459h-2.6v-5.459Zm-8.011,0h2.6v5.459h-2.6v-5.459Zm15.107,9.655h4.383l-.28,1.379-.013.062v6.921h-3.8v-6.921l-.013-.062-.28-1.379Zm16.938,1.874h2.6v5.46h-2.6v-5.46Zm-8.011,0h2.6v5.46h-2.6v-5.46Zm-16.023,0h2.6v5.46h-2.6v-5.46Zm-8.011,0h2.6v5.46h-2.6v-5.46Z" transform="translate(-358.303 -214.066)" fill="#98d09a"/>
                </g>
              </g>
            </g>
          </g>
        </g>
        <g id="Group_584" data-name="Group 584" transform="translate(696)">
          <g id="Group_563" data-name="Group 563" transform="translate(29.078 39.585)">
            <g id="Group_562" data-name="Group 562">
              <g id="Group_561" data-name="Group 561">
                <g id="Group_560" data-name="Group 560">
                  <g id="Group_559" data-name="Group 559">
                    <path id="Path_20128" data-name="Path 20128" d="M713.551,72.318v.75h-5.688v-.75h5.688m.637-.638h-6.963v2.025h6.963V71.68Z" transform="translate(-707.225 -71.68)" fill="#98d09a"/>
                  </g>
                </g>
              </g>
            </g>
          </g>
          <g id="Group_568" data-name="Group 568" transform="translate(29.055 24.506)">
            <g id="Group_567" data-name="Group 567">
              <g id="Group_566" data-name="Group 566">
                <g id="Group_565" data-name="Group 565">
                  <g id="Group_564" data-name="Group 564">
                    <path id="Path_20129" data-name="Path 20129" d="M713.574,57.238v.75H707.84v-.75h5.734m.638-.637H707.2v2.025h7.01V56.6Z" transform="translate(-707.202 -56.601)" fill="#98d09a"/>
                  </g>
                </g>
              </g>
            </g>
          </g>
          <g id="Group_573" data-name="Group 573" transform="translate(29.055 13.166)">
            <g id="Group_572" data-name="Group 572">
              <g id="Group_571" data-name="Group 571">
                <g id="Group_570" data-name="Group 570">
                  <g id="Group_569" data-name="Group 569">
                    <path id="Path_20130" data-name="Path 20130" d="M713.574,45.9v.75H707.84V45.9h5.734m.638-.638H707.2v2.025h7.01V45.261Z" transform="translate(-707.202 -45.261)" fill="#98d09a"/>
                  </g>
                </g>
              </g>
            </g>
          </g>
          <g id="Group_578" data-name="Group 578" transform="translate(0 2.294)">
            <g id="Group_577" data-name="Group 577">
              <g id="Group_576" data-name="Group 576">
                <g id="Group_575" data-name="Group 575">
                  <g id="Group_574" data-name="Group 574">
                    <path id="Path_20131" data-name="Path 20131" d="M717.783,35.026V73.068h-3.575V63a5.342,5.342,0,0,0-7,0V73.068H678.785V35.026h39m-10.577,12.3h7V40.357a5.343,5.343,0,0,0-7,0v6.971m-8.219,0h4.476V40.357a2.57,2.57,0,0,0-4.476,0v6.971m-7.568,0H695.9V40.357a2.57,2.57,0,0,0-4.477,0v6.971m-8.01,0h4.476V40.357a2.57,2.57,0,0,0-4.476,0v6.971m23.8,11.34h7V51.7a5.346,5.346,0,0,0-7,0v6.972m-8.219,0h4.476V51.7a2.571,2.571,0,0,0-4.476,0v6.972m-7.568,0H695.9V51.7a2.571,2.571,0,0,0-4.477,0v6.972m-8.01,0h4.476V51.7a2.571,2.571,0,0,0-4.476,0v6.972m15.578,11.339h4.476V63.035a2.571,2.571,0,0,0-4.476,0v6.972m-7.568,0H695.9V63.035a2.571,2.571,0,0,0-4.477,0v6.972m-8.01,0h4.476V63.035a2.571,2.571,0,0,0-4.476,0v6.972M718.42,34.389H678.147V73.705h29.7V63.291a4.768,4.768,0,0,1,5.728,0V73.705h4.849V34.389Zm-10.577,6.255a4.768,4.768,0,0,1,5.728,0v6.047h-5.728V40.644Zm-8.218-.081a1.9,1.9,0,0,1,3.2,0v6.128h-3.2V40.563Zm-7.568,0a1.9,1.9,0,0,1,3.2,0v6.128h-3.2V40.563Zm-8.011,0a1.9,1.9,0,0,1,3.2,0v6.128h-3.2V40.563Zm23.8,11.42a4.768,4.768,0,0,1,5.728,0V58.03h-5.728V51.983Zm-8.218-.081a1.9,1.9,0,0,1,3.2,0V58.03h-3.2V51.9Zm-7.568,0a1.9,1.9,0,0,1,3.2,0V58.03h-3.2V51.9Zm-8.011,0a1.9,1.9,0,0,1,3.2,0V58.03h-3.2V51.9Zm15.579,11.34a1.9,1.9,0,0,1,3.2,0V69.37h-3.2V63.242Zm-7.568,0a1.9,1.9,0,0,1,3.2,0V69.37h-3.2V63.242Zm-8.011,0a1.9,1.9,0,0,1,3.2,0V69.37h-3.2V63.242Z" transform="translate(-678.147 -34.389)" fill="#98d09a"/>
                  </g>
                </g>
              </g>
            </g>
          </g>
          <g id="Group_583" data-name="Group 583">
            <g id="Group_582" data-name="Group 582">
              <g id="Group_581" data-name="Group 581">
                <g id="Group_580" data-name="Group 580">
                  <g id="Group_579" data-name="Group 579">
                    <path id="Path_20132" data-name="Path 20132" d="M717.783,32.732V34.35h-39V32.732h39m.637-.637H678.147v2.892H718.42V32.1Z" transform="translate(-678.147 -32.095)" fill="#98d09a"/>
                  </g>
                </g>
              </g>
            </g>
          </g>
        </g>
      </g>
      <g id="Group_744" data-name="Group 744" transform="translate(140.894 0)">
        <g id="Group_633" data-name="Group 633" transform="translate(0 224.067)">
          <g id="Group_632" data-name="Group 632">
            <g id="Group_631" data-name="Group 631">
              <g id="Group_630" data-name="Group 630">
                <g id="Group_629" data-name="Group 629">
                  <g id="Group_628" data-name="Group 628">
                    <path id="Path_20141" data-name="Path 20141" d="M470.4,408.622v33.25a103.9,103.9,0,0,0-17.449-7.288l-.683-.221-.138.7L449.9,446.436l-3.647.022-.673-13.545-.023-.472-.459-.115a78.611,78.611,0,0,0-17.67-2.578V420.67c15.9-.108,30.719-4.264,42.978-12.048m4.509,5.491a11.769,11.769,0,0,1,0,21.447v-.167a11.626,11.626,0,0,0,0-21.113v-.167m0,6.163a6.625,6.625,0,0,1,0,9.12v-.237a6.476,6.476,0,0,0,0-8.646v-.237m-3.872-12.825c-13.294,8.752-28.978,12.584-44.253,12.584v10.346a77.52,77.52,0,0,1,18.153,2.564l.7,14.155,4.778-.03,2.336-11.879a99.35,99.35,0,0,1,18.282,7.774V407.451Zm3.235,5.712V414.7a10.99,10.99,0,0,1,0,20.282v1.532a12.412,12.412,0,0,0,0-23.346Zm0,5.713v1.887a5.846,5.846,0,0,1,0,8.147V430.8a7.289,7.289,0,0,0,0-11.92Z" transform="translate(-426.787 -407.451)" fill="#98d09a"/>
                  </g>
                </g>
              </g>
            </g>
          </g>
        </g>
        <g id="Group_639" data-name="Group 639" transform="translate(709.302 272.212)">
          <g id="Group_638" data-name="Group 638">
            <g id="Group_637" data-name="Group 637">
              <g id="Group_636" data-name="Group 636">
                <g id="Group_635" data-name="Group 635">
                  <g id="Group_634" data-name="Group 634">
                    <path id="Path_20142" data-name="Path 20142" d="M501.868,301.3H489.8l.005-.324a60.866,60.866,0,0,0-.92-10.8h-6.963l-.028-.288c-.014-.141-1.462-14.179-6.989-17.733-3.9-2.51-3.285-4.185-3-4.639.643-1.031,2.442-1.141,3.93-.242.451.273.9.553,1.332.825,2.093,1.315,4.068,2.552,4.857,1.79.876-.842-1.254-10.819-2.8-15.051a3.632,3.632,0,0,1,.228-3.571,1.115,1.115,0,0,1,1.14-.363c.9.24,1.666,1.533,2.143,3.643.013.03,2.363,6.646,2.635,7.36.076.2.2.258.252.266.059-.014.176-.163.156-.543-.031-.526-.178-2.033-.347-3.776-.165-1.707-.358-3.692-.505-5.387a3.116,3.116,0,0,1,.914-2.879,1.27,1.27,0,0,1,1.3-.1,2.908,2.908,0,0,1,1.268,2.568c.178,2.633.469,5.772.662,7.85l.141,1.539c.056.635.321.92.548.92l.013,0c.26-.011.535-.378.535-1.035-.008-.141-.037-.561-.076-1.134-.234-3.421-.445-6.664-.4-7.243-.025-1.441.708-2.134,1.4-2.157h.036c.741,0,1.559.746,1.643,2.408h0s.386,7.006.455,8.2a.691.691,0,0,0,.565.718h0c.288,0,.49-.352.531-.917.068-.985.158-1.853.255-2.793.079-.761.163-1.57.244-2.529.106-1.251.792-2.271,1.514-2.271a.449.449,0,0,1,.053,0c.6.042,1.281.73,1.119,3.771-.028.456-.1,2.085-.2,4.382a1.874,1.874,0,0,1,1.068.585,3.185,3.185,0,0,1,.672,2.64c-.442,3.388-.772,7.6-.8,8.9a1.064,1.064,0,0,0,.475.921.4.4,0,0,0,.365.047c.173-.1.277-.422.282-.87.023-2.073.767-8.121.948-8.917.18-1.27.815-1.664,1.321-1.594.808.1,1.553,1.343,1.352,3.168-.681,4.181-1.157,8.779-.812,9.478.339-.482.686-2.753,1.033-6.759.086-.986.307-1.536.676-1.682a.557.557,0,0,1,.588.132c.9.813,1.62,5.7-.674,13.793-2.406,8.491-2.361,9.632-2.2,13.877.053,1.381.12,3.1.12,5.5Zm-11.423-.639H501.23c-.006-2.22-.068-3.84-.12-5.154-.168-4.325-.213-5.487,2.221-14.076,2.212-7.8,1.477-12.506.9-13.11a2.817,2.817,0,0,0-.246,1.1c-.513,5.934-.926,7.167-1.5,7.368a.556.556,0,0,1-.6-.187c-.8-.862.272-7.9.621-10.043.169-1.536-.422-2.4-.8-2.449-.236-.056-.5.292-.613,1.077-.181.793-.915,6.83-.937,8.808-.009.9-.336,1.267-.607,1.419a.984.984,0,0,1-1.005-.054,1.7,1.7,0,0,1-.786-1.482c.025-1.313.358-5.56.8-8.97a2.6,2.6,0,0,0-.506-2.121,1.251,1.251,0,0,0-.629-.377c-.393,9.193-1.126,27.467-1.126,27.467l-.013.306h-6.746A61.7,61.7,0,0,1,490.445,300.664Zm-1.035-11.119h6.258c.1-2.415.747-18.543,1.111-27.063-.462.223-.891.847-.9,2.076-.046,3.673-.34,7.848-.48,8.964-.1.787-.5,1.08-.846,1.092a.89.89,0,0,1-.808-.8c-.139-.712-.9-5.166-1.27-7.306l-.078-.455a1.4,1.4,0,0,0-.811-1.112.564.564,0,0,0-.583.079c-.179.151-.567.672-.282,2.254.4,2.228,2.322,13.4.795,14.538-1.291.968-3.391-1.05-5.615-3.181l-.75-.716c-.876-.829-1.575-.932-1.76-.734-.306.314-.067,1.833,2.621,4.524C487.5,283.2,488.646,285.837,489.41,289.545Zm-6.911,0h6.259c-.736-3.515-1.813-6-3.2-7.392-2.954-2.958-3.262-4.768-2.627-5.42.546-.558,1.61-.271,2.656.715l.753.719c1.845,1.768,3.933,3.763,4.794,3.132.793-.592.076-7.684-1.045-13.916-.312-1.748.1-2.517.5-2.855a1.213,1.213,0,0,1,1.212-.189,2.056,2.056,0,0,1,1.22,1.6l.078.455c.367,2.139,1.13,6.588,1.267,7.293.042.216.137.286.158.286h0c.043,0,.187-.135.236-.532.137-1.105.43-5.243.474-8.892.021-1.76.806-2.562,1.571-2.756.1-2.333.175-3.989.2-4.448.132-2.49-.347-3.086-.526-3.1-.234-.042-.8.667-.889,1.686-.082.963-.167,1.777-.244,2.541-.1.934-.187,1.8-.256,2.772-.077,1.116-.675,1.509-1.167,1.509h0a1.3,1.3,0,0,1-1.2-1.316c-.069-1.194-.456-8.205-.456-8.205-.061-1.189-.548-1.8-1.005-1.8h-.018c-.4.013-.8.545-.782,1.536-.042.641.258,5.06.4,7.182.039.576.067,1,.077,1.16,0,1.133-.593,1.666-1.144,1.691h-.041c-.529,0-1.089-.457-1.183-1.5l-.141-1.536c-.193-2.081-.486-5.224-.662-7.865a2.38,2.38,0,0,0-.91-2.037.628.628,0,0,0-.663.054,2.511,2.511,0,0,0-.64,2.3c.147,1.694.34,3.677.505,5.381.177,1.823.316,3.262.347,3.8.045.773-.31,1.129-.657,1.2a.887.887,0,0,1-.98-.662c-.276-.722-2.556-7.137-2.652-7.409-.494-2.171-1.2-3.074-1.7-3.2a.488.488,0,0,0-.507.175,3.075,3.075,0,0,0-.1,2.925c1.021,2.8,4.071,14.353,2.641,15.729-1.155,1.106-3.231-.2-5.637-1.711-.432-.271-.874-.548-1.324-.82-1.3-.784-2.655-.61-3.06.034s.092,2.02,2.808,3.766C480.65,275.1,482.261,287.439,482.5,289.545Z" transform="translate(-471.688 -249.358)" fill="#98d09a"/>
                  </g>
                </g>
              </g>
            </g>
          </g>
        </g>
        <g id="Group_645" data-name="Group 645" transform="translate(467.583 0)">
          <g id="Group_644" data-name="Group 644">
            <g id="Group_643" data-name="Group 643">
              <g id="Group_642" data-name="Group 642">
                <g id="Group_641" data-name="Group 641">
                  <g id="Group_640" data-name="Group 640">
                    <path id="Path_20143" data-name="Path 20143" d="M180.089,263.918H146.074V229.9h34.015v2.4l4.866-4.866,5.471,5.472-10.337,10.339Zm-33.377-.638h32.739v-19.4l-14.228,14.229-14.2-14.206,5.473-5.473,8.731,8.732,14.228-14.227v-2.4H146.712Zm5.208-19.372,13.3,13.3,14.228-14.227v-9.143L165.223,248.07l-8.731-8.732Zm28.169-10.7v9.143l9.436-9.438-4.57-4.569Z" transform="translate(-146.074 -227.437)" fill="#98d09a"/>
                  </g>
                </g>
              </g>
            </g>
          </g>
        </g>
        <g id="Group_650" data-name="Group 650" transform="translate(1238.833 286.032)">
          <g id="Group_649" data-name="Group 649">
            <g id="Group_648" data-name="Group 648">
              <g id="Group_647" data-name="Group 647">
                <g id="Group_646" data-name="Group 646">
                  <path id="Path_20144" data-name="Path 20144" d="M143.261,446.839h-20.24v-6.262a1.883,1.883,0,1,0-3.765,0v6.262H116.2v-6.262a1.882,1.882,0,1,0-3.765,0v6.262h-3.054v-6.262a1.882,1.882,0,1,0-3.764,0v6.262h-3.054v-6.262a1.882,1.882,0,1,0-3.765,0v6.262H95.747v-6.262a1.882,1.882,0,1,0-3.764,0v6.262H71.614V423.966H70.231v-3.1H88.3v-.317h-1.67v-1.869h6.483v-1.22h-.975l-.221-1.379,5.4-1.765c-.032-.325-.048-.61-.048-.879a10.155,10.155,0,0,1,8.1-9.948v-3.772l2.073-2.016,2.074,2.016v3.772a10.156,10.156,0,0,1,8.1,9.948c0,.267-.015.552-.047.879l5.394,1.765-.219,1.379h-.976v1.22h6.483v1.869h-1.669v.317h18.069v3.1h-1.382Zm-16.687-.638h16.049V423.328h1.382V421.5H126.574v1.824h15.618v1.718H126.574Zm-2.915,0h2.254l.023-26.292h1.669v-.593H87.269v.593h1.67l.022,26.292h2.384v-5.624a2.521,2.521,0,1,1,5.041,0V446.2h1.777v-5.624a2.521,2.521,0,1,1,5.041,0V446.2h1.777v-5.624a2.521,2.521,0,1,1,5.041,0V446.2H111.8v-5.624a2.521,2.521,0,1,1,5.041,0V446.2h1.777v-5.624a2.521,2.521,0,1,1,5.041,0Zm-51.407,0H88.3V425.044H72.66v-1.716H88.3V421.5H70.869v1.826h1.383Zm54.322-21.795h14.98v-.442h-14.98Zm-53.276,0h15v-.44h-15Zm46.458-5.728h1.366V416.82h1.069l.049-.306-5.371-1.755.03-.26a9.208,9.208,0,0,0,.071-1.064,9.517,9.517,0,0,0-7.835-9.37l-.262-.049v-4.03l-1.436-1.4-1.435,1.4v4.03l-.263.049a9.515,9.515,0,0,0-7.835,9.37,9.152,9.152,0,0,0,.071,1.064l.031.26-5.372,1.755.048.306h1.07v1.858h1.366V416.32l12.319-4.414.108.039,12.211,4.375Zm-24,0h23.362v-1.91l-11.681-4.183-11.681,4.183Zm44.555,25.345H135.27v-5.967h5.041Zm-4.4-.638h3.765v-4.691h-3.765Zm-1.931.638h-5.041v-5.967h5.041Zm-4.4-.638h3.765v-4.691h-3.765Zm-43.61.638H80.923v-5.967h5.041Zm-4.4-.638h3.764v-4.691H81.562Zm-1.933.638h-5.04v-5.967h5.04Zm-4.4-.638h3.764v-4.691H75.227Zm65.084-6.728H135.27v-6.826a2.521,2.521,0,0,1,5.041,0Zm-4.4-.638h3.765v-6.188a1.883,1.883,0,0,0-3.765,0Zm-1.931.638h-5.041v-6.826a2.521,2.521,0,0,1,5.041,0Zm-4.4-.638h3.765v-6.188a1.883,1.883,0,0,0-3.765,0Zm-5.915.638h-5.041V423.328h5.041Zm-4.4-.638h3.765V423.966h-3.765Zm-2.415.638H111.8V423.328h5.041Zm-4.4-.638H116.2V423.966h-3.765Zm-2.456.638h-5V423.328h5Zm-4.362-.638h3.724V423.966H105.62Zm-2.416.638H98.163V423.328H103.2Zm-4.4-.638h3.765V423.966H98.8Zm-2.415.638H91.345V423.328h5.041Zm-4.4-.638h3.764V423.966H91.983Zm-6.019.638H80.923v-6.826a2.521,2.521,0,0,1,5.041,0Zm-4.4-.638h3.764v-6.188a1.882,1.882,0,0,0-3.764,0Zm-1.933.638h-5.04v-6.826a2.52,2.52,0,0,1,5.04,0Zm-4.4-.638h3.764v-6.188a1.882,1.882,0,0,0-3.764,0Z" transform="translate(-70.231 -397.699)" fill="#98d09a"/>
                </g>
              </g>
            </g>
          </g>
        </g>
        <g id="Group_743" data-name="Group 743" transform="translate(701.158 385.046)">
          <g id="Group_660" data-name="Group 660" transform="translate(35.937 29.071)">
            <g id="Group_659" data-name="Group 659">
              <g id="Group_658" data-name="Group 658">
                <g id="Group_657" data-name="Group 657">
                  <g id="Group_656" data-name="Group 656">
                    <path id="Path_20146" data-name="Path 20146" d="M353.141,570.118l-.686-.686a5.063,5.063,0,0,0-2.427-.033,9.322,9.322,0,0,1-1.209.134l-.277,0-.986-6.512.3-.056a5.616,5.616,0,0,1,1-.081h0a16.192,16.192,0,0,1,1.949.147h0a3.174,3.174,0,0,1,.635.151l-.251-1.667.758.759.019.106Zm-4.862-6.566.81,5.329c.255-.022.543-.066.843-.112a6.757,6.757,0,0,1,2.348-.072l-.725-4.79a3.255,3.255,0,0,0-.826-.241A12.758,12.758,0,0,0,348.279,563.552Z" transform="translate(-347.556 -561.518)" fill="#98d09a"/>
                  </g>
                </g>
              </g>
            </g>
          </g>
          <g id="Group_665" data-name="Group 665" transform="translate(36.996 37.276)">
            <g id="Group_664" data-name="Group 664">
              <g id="Group_663" data-name="Group 663">
                <g id="Group_662" data-name="Group 662">
                  <g id="Group_661" data-name="Group 661">
                    <path id="Path_20147" data-name="Path 20147" d="M349.19,573.815l-.575-3.8.354-.017a10.551,10.551,0,0,0,1.133-.126,9.594,9.594,0,0,1,1.385-.146,1.478,1.478,0,0,1,.762.147l.005,0c.188.12.47.332.862.646l.1.078.361,2.389Zm.16-3.207.372,2.457,3.131-.593-.232-1.532c-.316-.253-.552-.428-.7-.525a1.132,1.132,0,0,0-.431-.054,9.375,9.375,0,0,0-1.289.137C349.955,570.536,349.657,570.578,349.35,570.608Z" transform="translate(-348.615 -569.723)" fill="#98d09a"/>
                  </g>
                </g>
              </g>
            </g>
          </g>
          <g id="Group_670" data-name="Group 670" transform="translate(20.752)">
            <g id="Group_669" data-name="Group 669">
              <g id="Group_668" data-name="Group 668">
                <g id="Group_667" data-name="Group 667">
                  <g id="Group_666" data-name="Group 666">
                    <path id="Path_20148" data-name="Path 20148" d="M352.027,562.789l-.411-.043c-.165-.019-.451-.059-.783-.106-.683-.1-1.618-.227-1.975-.227a5.627,5.627,0,0,0-1.05.095l-.322.057-1.515-10-4.62.7,1.248-8.234-9.132-1.384-1.1-7.227.315-.047,25.9-3.925.047.315,2.65,17.483-10.9,1.651Zm-3.169-1.014c.4,0,1.323.13,2.064.235l.35.048-1.617-10.7,10.9-1.651-2.507-16.536L333.1,536.954l.93,6.132,9.3,1.408-1.214,8.01,4.4-.666,1.512,9.991A6.27,6.27,0,0,1,348.858,561.775Z" transform="translate(-332.371 -532.447)" fill="#98d09a"/>
                  </g>
                </g>
              </g>
            </g>
          </g>
          <g id="Group_676" data-name="Group 676" transform="translate(0 37.31)">
            <g id="Group_675" data-name="Group 675">
              <g id="Group_674" data-name="Group 674">
                <g id="Group_673" data-name="Group 673">
                  <g id="Group_672" data-name="Group 672">
                    <g id="Group_671" data-name="Group 671">
                      <path id="Path_20149" data-name="Path 20149" d="M314.734,584.407l-3.115-5.736.281-.151c.053-.03,5.3-2.856,6.408-3.9.452-.426,1.174-1.3,1.873-2.155,1.723-2.1,2.286-2.706,2.7-2.706h.372l-1.317,8.548-.123.078c-1.458.914-6.73,5.7-6.783,5.752Zm-2.25-5.479,2.423,4.461c1.124-1.014,5.017-4.506,6.449-5.467l1.1-7.144c-.484.51-1.233,1.421-1.78,2.09a29.046,29.046,0,0,1-1.929,2.214A50.471,50.471,0,0,1,312.484,578.928Z" transform="translate(-311.619 -569.757)" fill="#98d09a"/>
                    </g>
                  </g>
                </g>
              </g>
            </g>
          </g>
          <g id="Group_717" data-name="Group 717" transform="translate(2.795 8.076)">
            <g id="Group_681" data-name="Group 681" transform="translate(9.902 35.121)">
              <g id="Group_680" data-name="Group 680">
                <g id="Group_679" data-name="Group 679">
                  <g id="Group_678" data-name="Group 678">
                    <g id="Group_677" data-name="Group 677">
                      <path id="Path_20150" data-name="Path 20150" d="M325.192,577.652a.871.871,0,0,1-.871-.789.883.883,0,0,1,.781-.986l2.35-.233-.274,1.815Zm1.507-1.292-1.535.152a.24.24,0,0,0-.211.26.247.247,0,0,0,.239.242v.319l.013-.319,1.416-.141Z" transform="translate(-324.316 -575.644)" fill="#98d09a"/>
                    </g>
                  </g>
                </g>
              </g>
            </g>
            <g id="Group_686" data-name="Group 686" transform="translate(9.016 33.325)">
              <g id="Group_685" data-name="Group 685">
                <g id="Group_684" data-name="Group 684">
                  <g id="Group_683" data-name="Group 683">
                    <g id="Group_682" data-name="Group 682">
                      <path id="Path_20151" data-name="Path 20151" d="M324.308,575.971a.871.871,0,0,1-.871-.789l0-.028a.879.879,0,0,1,.783-.957l3.507-.349-.274,1.815Zm-.239-.881,0,.025a.239.239,0,0,0,.236.218l2.585-.255.078-.514-2.691.268A.239.239,0,0,0,324.069,575.09Z" transform="translate(-323.43 -573.848)" fill="#98d09a"/>
                    </g>
                  </g>
                </g>
              </g>
            </g>
            <g id="Group_691" data-name="Group 691" transform="translate(8.847 30.835)">
              <g id="Group_690" data-name="Group 690">
                <g id="Group_689" data-name="Group 689">
                  <g id="Group_688" data-name="Group 688">
                    <g id="Group_687" data-name="Group 687">
                      <path id="Path_20152" data-name="Path 20152" d="M323.261,573.538l.33-2.18.453.535a1.186,1.186,0,0,0,.137.156l.375.282-.4.246a.808.808,0,0,0-.181.155Z" transform="translate(-323.261 -571.358)" fill="#98d09a"/>
                    </g>
                  </g>
                </g>
              </g>
            </g>
            <g id="Group_696" data-name="Group 696" transform="translate(7.708 33.761)">
              <g id="Group_695" data-name="Group 695">
                <g id="Group_694" data-name="Group 694">
                  <g id="Group_693" data-name="Group 693">
                    <g id="Group_692" data-name="Group 692">
                      <path id="Path_20153" data-name="Path 20153" d="M326.506,581.891l-4.384-.83,1.027-6.777.434,1.092a.774.774,0,0,0,.682.5l.521.028-.263.452a.779.779,0,0,0-.123.47.8.8,0,0,0,.792.742l.086,0,1.913-.191Zm-3.662-1.343,3.13.593.463-3.051-1.2.116h0a1.451,1.451,0,0,1-1.471-1.317,1.288,1.288,0,0,1,.041-.464,1.413,1.413,0,0,1-.312-.166Z" transform="translate(-322.122 -574.284)" fill="#98d09a"/>
                    </g>
                  </g>
                </g>
              </g>
            </g>
            <g id="Group_701" data-name="Group 701">
              <g id="Group_700" data-name="Group 700">
                <g id="Group_699" data-name="Group 699">
                  <g id="Group_698" data-name="Group 698">
                    <g id="Group_697" data-name="Group 697">
                      <path id="Path_20154" data-name="Path 20154" d="M323.63,571.112l1.687-11.141-10.9-1.651,2.7-17.8,16.918,2.563,1.577,10.405,6.506-.987-1.481,9.787-10.9-1.652-1.454,9.594-3.716.37a.772.772,0,0,0-.333.128Zm-8.491-13.327,10.9,1.651-1.6,10.539.047-.007,3.221-.32,1.475-9.734,10.9,1.652,1.258-8.3-6.283.952-1.6-10.57-15.822-2.4Z" transform="translate(-314.414 -540.523)" fill="#98d09a"/>
                    </g>
                  </g>
                </g>
              </g>
            </g>
            <g id="Group_706" data-name="Group 706" transform="translate(9.347 29.627)">
              <g id="Group_705" data-name="Group 705">
                <g id="Group_704" data-name="Group 704">
                  <g id="Group_703" data-name="Group 703">
                    <g id="Group_702" data-name="Group 702">
                      <path id="Path_20155" data-name="Path 20155" d="M324.638,572.3a.877.877,0,0,1-.871-.788l0-.028a.877.877,0,0,1,.785-.959l3.735-.372-.274,1.815Zm2.893-1.431-2.919.291a.239.239,0,0,0-.212.259l0,.043a.241.241,0,0,0,.236.2l2.816-.278Z" transform="translate(-323.761 -570.15)" fill="#98d09a"/>
                    </g>
                  </g>
                </g>
              </g>
            </g>
            <g id="Group_711" data-name="Group 711" transform="translate(8.564 32.012)">
              <g id="Group_710" data-name="Group 710">
                <g id="Group_709" data-name="Group 709">
                  <g id="Group_708" data-name="Group 708">
                    <g id="Group_707" data-name="Group 707">
                      <path id="Path_20156" data-name="Path 20156" d="M322.978,575.409l.436-2.874.438,1.035a.811.811,0,0,0,.181.275l.331.313-.407.2a.783.783,0,0,0-.254.2Z" transform="translate(-322.978 -572.535)" fill="#98d09a"/>
                    </g>
                  </g>
                </g>
              </g>
            </g>
            <g id="Group_716" data-name="Group 716" transform="translate(9.28 31.497)">
              <g id="Group_715" data-name="Group 715">
                <g id="Group_714" data-name="Group 714">
                  <g id="Group_713" data-name="Group 713">
                    <g id="Group_712" data-name="Group 712">
                      <path id="Path_20157" data-name="Path 20157" d="M324.571,574.144a.872.872,0,0,1-.87-.786l0-.03a.879.879,0,0,1,.783-.958l3.52-.35-.274,1.814Zm2.677-1.409-2.7.27a.238.238,0,0,0-.16.087.235.235,0,0,0-.052.171l0,.031a.239.239,0,0,0,.235.212l2.6-.257Z" transform="translate(-323.694 -572.02)" fill="#98d09a"/>
                    </g>
                  </g>
                </g>
              </g>
            </g>
          </g>
          <g id="Group_722" data-name="Group 722" transform="translate(11.813 41.376)">
            <g id="Group_721" data-name="Group 721">
              <g id="Group_720" data-name="Group 720">
                <g id="Group_719" data-name="Group 719">
                  <g id="Group_718" data-name="Group 718">
                    <path id="Path_20158" data-name="Path 20158" d="M324.308,575.971a.871.871,0,0,1-.871-.789.885.885,0,0,1,.78-.985l3.808-.374a.874.874,0,0,1,.871.786.885.885,0,0,1-.781.988Zm3.717-1.829-.028.319-3.717.371a.24.24,0,0,0-.211.26.247.247,0,0,0,.239.241l3.743-.371a.238.238,0,0,0,.213-.259.249.249,0,0,0-.239-.242Z" transform="translate(-323.432 -573.823)" fill="#98d09a"/>
                  </g>
                </g>
              </g>
            </g>
          </g>
          <g id="Group_727" data-name="Group 727" transform="translate(12.697 43.172)">
            <g id="Group_726" data-name="Group 726">
              <g id="Group_725" data-name="Group 725">
                <g id="Group_724" data-name="Group 724">
                  <g id="Group_723" data-name="Group 723">
                    <path id="Path_20159" data-name="Path 20159" d="M325.192,577.652a.871.871,0,0,1-.871-.789.883.883,0,0,1,.781-.986l2.641-.258a.872.872,0,0,1,.87.789.885.885,0,0,1-.191.669.868.868,0,0,1-.59.316Zm2.551-1.714-.03.321-2.549.253a.24.24,0,0,0-.211.26.247.247,0,0,0,.239.242l2.577-.256a.225.225,0,0,0,.159-.085.233.233,0,0,0,.053-.173.247.247,0,0,0-.238-.243Z" transform="translate(-324.316 -575.619)" fill="#98d09a"/>
                  </g>
                </g>
              </g>
            </g>
          </g>
          <g id="Group_732" data-name="Group 732" transform="translate(12.077 39.549)">
            <g id="Group_731" data-name="Group 731">
              <g id="Group_730" data-name="Group 730">
                <g id="Group_729" data-name="Group 729">
                  <g id="Group_728" data-name="Group 728">
                    <path id="Path_20160" data-name="Path 20160" d="M324.571,574.144a.873.873,0,0,1-.87-.788.882.882,0,0,1,.192-.669.869.869,0,0,1,.588-.317l3.807-.374a.87.87,0,0,1,.871.789.884.884,0,0,1-.779.985Zm3.717-1.829-.028.319-3.715.371a.238.238,0,0,0-.16.087.235.235,0,0,0-.052.171.248.248,0,0,0,.238.243l3.745-.371a.237.237,0,0,0,.211-.26.247.247,0,0,0-.239-.241Z" transform="translate(-323.696 -571.996)" fill="#98d09a"/>
                  </g>
                </g>
              </g>
            </g>
          </g>
          <g id="Group_737" data-name="Group 737" transform="translate(12.143 37.721)">
            <g id="Group_736" data-name="Group 736">
              <g id="Group_735" data-name="Group 735">
                <g id="Group_734" data-name="Group 734">
                  <g id="Group_733" data-name="Group 733">
                    <path id="Path_20161" data-name="Path 20161" d="M324.638,572.3a.877.877,0,0,1-.871-.788.89.89,0,0,1,.193-.671.876.876,0,0,1,.59-.316l3.6-.354a.89.89,0,0,1,.089,1.774Zm3.514-1.81-.029.32-3.511.35a.239.239,0,0,0-.212.259.248.248,0,0,0,.238.242l3.541-.351a.24.24,0,0,0,.211-.26.246.246,0,0,0-.238-.241Z" transform="translate(-323.762 -570.168)" fill="#98d09a"/>
                  </g>
                </g>
              </g>
            </g>
          </g>
          <g id="Group_742" data-name="Group 742" transform="translate(35.06 29.368)">
            <g id="Group_741" data-name="Group 741">
              <g id="Group_740" data-name="Group 740">
                <g id="Group_739" data-name="Group 739">
                  <g id="Group_738" data-name="Group 738">
                    <path id="Path_20162" data-name="Path 20162" d="M358.792,574.938l-.3-.284c-.046-.042-4.617-4.323-5.987-5.184a4.156,4.156,0,0,0-2.472-.07c-1.1.165-2.248.343-2.422-.625h0a.866.866,0,0,1,.238-.834.889.889,0,0,1-.577-.677.866.866,0,0,1,.236-.844.787.787,0,0,1-.585-.716.873.873,0,0,1,.279-.828.814.814,0,0,1-.518-.768.9.9,0,0,1,.273-.744c.648-.624,2.31-.52,3.851-.33a3.174,3.174,0,0,1,.635.151l-.206-1.37.576.338a21.2,21.2,0,0,1,2.848,2.708c.341.359.619.655.773.8a54.717,54.717,0,0,0,6.039,3.676l.281.151Zm-7.307-6.327a2.537,2.537,0,0,1,1.359.319,71.653,71.653,0,0,1,5.781,4.979l2.263-4.165a47.744,47.744,0,0,1-5.892-3.62c-.159-.149-.448-.454-.8-.826-.621-.657-1.475-1.559-2.112-2.129l.156,1.035-.529-.23a3.612,3.612,0,0,0-.982-.308c-1.872-.228-2.988-.176-3.331.155a.266.266,0,0,0-.08.232c.015.188.042.2.154.246a.6.6,0,0,1,.407.419.582.582,0,0,1-.216.6.267.267,0,0,0-.109.3c.022.161.045.168.188.208a.6.6,0,0,1,.478.413.592.592,0,0,1-.208.577c-.117.124-.153.17-.122.3.044.184.108.206.248.254a.555.555,0,0,1,.431.429.609.609,0,0,1-.227.553.265.265,0,0,0-.106.31h0c.062.333.711.26,1.7.11A10.376,10.376,0,0,1,351.485,568.611Z" transform="translate(-346.679 -561.815)" fill="#98d09a"/>
                  </g>
                </g>
              </g>
            </g>
          </g>
        </g>
      </g>
      <g id="Group_1030" data-name="Group 1030" transform="translate(59 72.582)">
        <g id="Group_1029" data-name="Group 1029">
          <g id="Group_1028" data-name="Group 1028">
            <g id="Group_1027" data-name="Group 1027">
              <g id="Group_1026" data-name="Group 1026">
                <g id="Group_1025" data-name="Group 1025">
                  <g id="Group_1024" data-name="Group 1024">
                    <g id="Group_1023" data-name="Group 1023">
                      <path id="Path_20214" data-name="Path 20214" d="M12.438,80.638V27.856L65.221,54.247Zm.639-51.752V79.608L63.795,54.247Z" transform="translate(-12.438 -27.856)" fill="#98d09a"/>
                    </g>
                  </g>
                </g>
              </g>
            </g>
          </g>
        </g>
      </g>
    </g>
    <g id="Group_1553" data-name="Group 1553" transform="translate(1181.999 57.77)">
      <g id="Group_1129" data-name="Group 1129">
        <g id="Group_1044" data-name="Group 1044" transform="translate(469.647 276.16)">
          <g id="Group_1043" data-name="Group 1043">
            <g id="Group_1042" data-name="Group 1042">
              <g id="Group_1041" data-name="Group 1041">
                <path id="Path_20217" data-name="Path 20217" d="M1198.783,566.849v4.337h-3.974v1.066h3.974v5.725h-1.871v1.13h1.871V584.8h-3.974v1.133h3.974v5.73h-1.871v1.053h1.871v5.792h-3.974v1.009h3.974v5.169a7.38,7.38,0,1,1-7.478,0V566.849h7.478m.634-.634h-8.747v38.118a8.014,8.014,0,1,0,8.747,0V566.215Z" transform="translate(-1187.03 -566.215)" fill="#98d09a"/>
              </g>
            </g>
          </g>
        </g>
        <g id="Group_1078" data-name="Group 1078" transform="translate(0 394.36)">
          <g id="Group_1065" data-name="Group 1065">
            <g id="Group_1064" data-name="Group 1064">
              <g id="Group_1063" data-name="Group 1063">
                <g id="Group_1062" data-name="Group 1062">
                  <path id="Path_20222" data-name="Path 20222" d="M725.986,465.634l3.3,9.447,7.158.025,3.309-9.47,1.251.156.837,9.488,7.976,3.709-.273,1.23h-8.917l-3.8,13.444,2.593,6.662-.069.027.1.084,3.287,16.861-1.2.433L734.4,504.74h-3.16l-7.133,12.99-1.194-.452,3.8-16.861.054-.043-.038-.012,2.139-6.458-4.007-13.685H716.2l-.279-1.226,7.7-3.643,1.126-9.577,1.248-.139m1.965,9.442-2.256-6.395-.752,6.385,3.008.01m12.58.044-.55-6.233-2.175,6.223,2.725.01m-3.005,3.035,2.3-1.8h-2.3v1.8m-4.656.655,2.489-2.457H730.38l2.49,2.457m-4.657-.779v-1.678h-1.866l1.866,1.678m-2.383.9h1.454l-1.971-1.771.517,1.771m18.486,0h2.312l-3.8-1.769,1.492,1.769m-9.732,0h1.657l.015-1.651-1.672,1.651m-5.081,0h1.652L729.5,477.3v1.631m-10.484,0h1.939L722.4,477.3l-3.377,1.627m3.66,0h1.811l-.451-1.539-1.36,1.539m18.311,0h1.64l-1.229-1.455-.411,1.455m-2.362,0h1.024l.29-1.028-1.314,1.028m-5.817,10.5,5.458-5.593,1.019-3.612H726.207l1.053,3.608,5.551,5.6m-3.015,3.089,2.137-2.189-3.921-3.922,1.784,6.111m6.037-.042,1.7-6.042-3.818,3.911,2.114,2.131m-5.608,1.449h5.2l.023-.08-2.6-2.6-2.62,2.684m2.589,5.277L735,495.21h-4.382l2.192,3.987m1.077.717h3.979l-1.65-4.24-2.329,4.24m-5.659,0h3.519l-2.22-4.042-1.3,4.042m6.921,3.536h3.567l-.438-2.246h-4.364l1.235,2.246m-7.8,0h3.122l1.233-2.246h-3.848l-.507,2.246m4.592,0h1.744l-.872-1.588-.872,1.588m5.193,3.617h2.283l-.453-2.327h-3.11l1.28,2.327m-10.6,0h1.953l1.277-2.327h-2.7l-.526,2.327m14.139,6.43-1-5.14h-1.825l2.827,5.14m-15.5-.394,2.606-4.746h-1.535l-1.071,4.746m14.144-48.159-.169.483-3.16,9.043-6.258-.022-3.15-9.023-.167-.477-.5.056-1.248.139-.5.056-.058.5-1.086,9.229-7.378,3.492-.46.218.113.5.28,1.225.113.493h8.7l3.818,13.039-2.077,6.27-.2.608.055.018-3.691,16.35-.121.537.515.2,1.194.452.515.2.265-.483,6.953-12.662h2.41l6.953,12.662.261.475.511-.184,1.2-.434.51-.185-.1-.533-3.208-16.454.018-.008-.078-.3-.019-.1-.044-.223-.032-.026-2.5-6.434,3.616-12.778h8.947l.11-.5.272-1.23.11-.5-.462-.215-7.643-3.554-.805-9.124-.045-.51-.509-.063-1.25-.156-.508-.063Zm-13.666,9.49.349-2.967,1.049,2.972-1.4-.005Zm13.042.045.91-2.6.23,2.607-1.14,0Zm-6.773,2.508h1.889l-.944.932-.945-.932Zm-4.872,3.866h11.4L737.7,483.5l-4.9,5.016-4.984-5.026-.771-2.641Zm3.048,10.44-.786-2.69,1.727,1.726-.941.964Zm4.508-.956,1.641-1.682-.732,2.6-.909-.916Zm-2.879,2.949,1.12-1.148L734,493.286Zm-.036,2.558h2.238l-1.118,2.036-1.12-2.036Zm3.269,3.436,1.159-2.11.821,2.11Zm-5.861,0,.582-1.812,1,1.812Zm5.888,2.558h2.77l.191.978h-2.423l-.538-.978Zm-6.619,0h2.27l-.538.978H728.15l.221-.978Zm8.564,3.536h1.514l.207,1.059h-1.139l-.582-1.059Zm-9.362,0H728.7l-.582,1.059h-.784l.24-1.059Zm11.351,3.617h.23l.127.648-.357-.648Z" transform="translate(-715.185 -464.944)" fill="#98d09a"/>
                </g>
              </g>
            </g>
          </g>
          <g id="Group_1069" data-name="Group 1069" transform="translate(31.789 15.006)">
            <g id="Group_1068" data-name="Group 1068">
              <g id="Group_1067" data-name="Group 1067">
                <g id="Group_1066" data-name="Group 1066">
                  <path id="Path_20223" data-name="Path 20223" d="M749,480.584V483.4h-1.394v-2.815H749m.634-.634h-2.662v4.083h2.662V479.95Z" transform="translate(-746.974 -479.95)" fill="#98d09a"/>
                </g>
              </g>
            </g>
          </g>
          <g id="Group_1073" data-name="Group 1073" transform="translate(16.645 15.006)">
            <g id="Group_1072" data-name="Group 1072">
              <g id="Group_1071" data-name="Group 1071">
                <g id="Group_1070" data-name="Group 1070">
                  <path id="Path_20224" data-name="Path 20224" d="M733.858,480.584V483.4h-1.393v-2.815h1.393m.634-.634H731.83v4.083h2.662V479.95Z" transform="translate(-731.83 -479.95)" fill="#98d09a"/>
                </g>
              </g>
            </g>
          </g>
          <g id="Group_1077" data-name="Group 1077" transform="translate(1.27 15.006)">
            <g id="Group_1076" data-name="Group 1076">
              <g id="Group_1075" data-name="Group 1075">
                <g id="Group_1074" data-name="Group 1074">
                  <path id="Path_20225" data-name="Path 20225" d="M718.482,480.584V483.4h-1.393v-2.815h1.393m.635-.634h-2.662v4.083h2.662V479.95Z" transform="translate(-716.455 -479.95)" fill="#98d09a"/>
                </g>
              </g>
            </g>
          </g>
        </g>
        <g id="Group_1115" data-name="Group 1115" transform="translate(117.365)">
          <g id="Group_1109" data-name="Group 1109">
            <g id="Group_1083" data-name="Group 1083" transform="translate(24.961 13.874)">
              <g id="Group_1082" data-name="Group 1082">
                <g id="Group_1081" data-name="Group 1081">
                  <g id="Group_1080" data-name="Group 1080">
                    <g id="Group_1079" data-name="Group 1079">
                      <path id="Path_20226" data-name="Path 20226" d="M766.771,318.125l7.69,12.773H759.376l-7.69-12.773h15.085m.359-.634H750.565l.578.961,7.69,12.773.185.307h16.565l-.579-.961L767.315,317.8l-.185-.307Z" transform="translate(-750.565 -317.491)" fill="#98d09a"/>
                    </g>
                  </g>
                </g>
              </g>
            </g>
            <g id="Group_1088" data-name="Group 1088" transform="translate(41.425 13.874)">
              <g id="Group_1087" data-name="Group 1087">
                <g id="Group_1086" data-name="Group 1086">
                  <g id="Group_1085" data-name="Group 1085">
                    <g id="Group_1084" data-name="Group 1084">
                      <path id="Path_20227" data-name="Path 20227" d="M783.235,318.125l7.69,12.773H775.84l-7.689-12.773h15.084m.359-.634H767.029l.578.961,7.69,12.773.185.307h16.565l-.579-.961L783.779,317.8l-.185-.307Z" transform="translate(-767.029 -317.491)" fill="#98d09a"/>
                    </g>
                  </g>
                </g>
              </g>
            </g>
            <g id="Group_1093" data-name="Group 1093" transform="translate(8.353 13.874)">
              <g id="Group_1092" data-name="Group 1092">
                <g id="Group_1091" data-name="Group 1091">
                  <g id="Group_1090" data-name="Group 1090">
                    <g id="Group_1089" data-name="Group 1089">
                      <path id="Path_20228" data-name="Path 20228" d="M750.164,318.125l7.69,12.773H742.768l-7.689-12.773h15.085m.359-.634H733.957l.578.961,7.69,12.773.185.307h16.566l-.579-.961-7.69-12.773-.184-.307Z" transform="translate(-733.957 -317.491)" fill="#98d09a"/>
                    </g>
                  </g>
                </g>
              </g>
            </g>
            <g id="Group_1098" data-name="Group 1098" transform="translate(16.608)">
              <g id="Group_1097" data-name="Group 1097">
                <g id="Group_1096" data-name="Group 1096">
                  <g id="Group_1095" data-name="Group 1095">
                    <g id="Group_1094" data-name="Group 1094">
                      <path id="Path_20229" data-name="Path 20229" d="M758.419,304.251l7.689,12.772H751.023l-7.689-12.772h15.085m.358-.634H742.212l.578.961,7.69,12.772.185.307H767.23l-.579-.961-7.689-12.772-.185-.307Z" transform="translate(-742.212 -303.617)" fill="#98d09a"/>
                    </g>
                  </g>
                </g>
              </g>
            </g>
            <g id="Group_1103" data-name="Group 1103" transform="translate(33.072)">
              <g id="Group_1102" data-name="Group 1102">
                <g id="Group_1101" data-name="Group 1101">
                  <g id="Group_1100" data-name="Group 1100">
                    <g id="Group_1099" data-name="Group 1099">
                      <path id="Path_20230" data-name="Path 20230" d="M774.883,304.251l7.689,12.772H767.487L759.8,304.251h15.085m.358-.634H758.676l.578.961,7.69,12.772.185.307h16.565l-.579-.961-7.689-12.772-.185-.307Z" transform="translate(-758.676 -303.617)" fill="#98d09a"/>
                    </g>
                  </g>
                </g>
              </g>
            </g>
            <g id="Group_1108" data-name="Group 1108">
              <g id="Group_1107" data-name="Group 1107">
                <g id="Group_1106" data-name="Group 1106">
                  <g id="Group_1105" data-name="Group 1105">
                    <g id="Group_1104" data-name="Group 1104">
                      <path id="Path_20231" data-name="Path 20231" d="M741.811,304.251l7.689,12.772H734.416l-7.69-12.772h15.085m.358-.634H725.6l.579.961,7.689,12.772.185.307h16.565l-.578-.961-7.69-12.772-.185-.307Z" transform="translate(-725.604 -303.617)" fill="#98d09a"/>
                    </g>
                  </g>
                </g>
              </g>
            </g>
          </g>
          <g id="Group_1114" data-name="Group 1114" transform="translate(3.3 6.64)">
            <g id="Group_1113" data-name="Group 1113">
              <g id="Group_1112" data-name="Group 1112">
                <g id="Group_1111" data-name="Group 1111">
                  <g id="Group_1110" data-name="Group 1110">
                    <path id="Path_20232" data-name="Path 20232" d="M729.538,312.494l1.433,2.324v14.648h9.04l.9,1.432H729.538v-18.4m-.634-2.237v21.275H742.06l-.611-.971-.9-1.433-.186-.3H731.6V314.638l-.094-.153-1.433-2.324-1.174-1.9Z" transform="translate(-728.904 -310.257)" fill="#98d09a"/>
                  </g>
                </g>
              </g>
            </g>
          </g>
        </g>
      </g>
    </g>
    <g id="Group_1782" data-name="Group 1782" transform="translate(955.912 86.316)">
      <g id="Group_1657" data-name="Group 1657" transform="translate(0 52.507)">
        <g id="Group_1612" data-name="Group 1612" transform="translate(951.134 80.736)">
          <g id="Group_1609" data-name="Group 1609">
            <g id="Group_1608" data-name="Group 1608">
              <path id="Path_20342" data-name="Path 20342" d="M1787.778,371.637l-.773,2.134v34.71h-24.01v-34.71l-.773-2.134h25.556m-9.484,11.231h4.283v-6.634h-4.283v6.634m-10.19,0h4.283v-6.634H1768.1v6.634m-1.9,9.812h7.584v-5.387l.552-1.677h-8.688l.552,1.677v5.387m12.088,1.246h4.283v-6.633h-4.283v6.633m-5.9,2.152h.905v-2.409h-.905v2.409m-1.9,0h.906v-2.409h-.906v2.409m-1.9,0h.906v-2.409h-.906v2.409m-1.9,0h.906v-2.409h-.906v2.409m-.494.991h0v7.021h7.584v-7.021h-7.581m12.085,7.58h4.283v-6.633h-4.283v6.633m-12.088,1.141h7.584v-.709h-7.584v.709m0,1.7h7.584v-.708h-7.584v.708M1788.681,371h-27.362l.308.849.735,2.029v35.233h25.276V373.882l.735-2.029.308-.849Zm-9.754,5.863h3.017v5.367h-3.017v-5.367Zm-10.19,0h3.017v5.367h-3.017v-5.367Zm-2.208,9.382h6.938l-.278.845-.032.1v4.855h-6.318v-4.855l-.032-.1-.278-.845Zm12.4,1.677h3.017v5.367h-3.017v-5.367Zm-12.088,9.777h6.318v5.753h-6.318V397.7Zm12.088.946h3.017v5.367h-3.017v-5.367Z" transform="translate(-1761.319 -371.004)" fill="#98d09a"/>
            </g>
          </g>
          <g id="Group_1611" data-name="Group 1611" transform="translate(25.487)">
            <g id="Group_1610" data-name="Group 1610">
              <path id="Path_20343" data-name="Path 20343" d="M1793,371.637l-.773,2.093v34.711h-4.787v-3.832h2.433v-6.634h-2.433v-4.09h2.433v-6.633h-2.433v-4.425h2.433v-6.634h-2.433v-2.078l.744-2.478H1793m.91-.633h-6.2l-.136.451-.744,2.478-.027.089v2.8h2.433v5.367h-2.433v5.691h2.433v5.367h-2.433v5.356h2.433v5.367h-2.433v5.1h6.054v-35.23l.734-1.988.316-.852Z" transform="translate(-1786.806 -371.004)" fill="#98d09a"/>
            </g>
          </g>
        </g>
        <g id="Group_1627" data-name="Group 1627" transform="translate(901.981 299.076)">
          <g id="Group_1614" data-name="Group 1614" transform="translate(30.405 45.67)">
            <g id="Group_1613" data-name="Group 1613">
              <path id="Path_20344" data-name="Path 20344" d="M1737.542,555.387v1.241H1729.2v-1.241h8.338m.633-.633h-9.6v2.508h9.6v-2.508Z" transform="translate(-1728.571 -554.754)" fill="#98d09a"/>
            </g>
          </g>
          <g id="Group_1616" data-name="Group 1616" transform="translate(14.866 37.352)">
            <g id="Group_1615" data-name="Group 1615">
              <path id="Path_20345" data-name="Path 20345" d="M1728.213,547.069V554.4h-14.548v-7.327h14.548m.633-.633h-15.814v8.593h15.814v-8.593Z" transform="translate(-1713.032 -546.436)" fill="#98d09a"/>
            </g>
          </g>
          <g id="Group_1618" data-name="Group 1618" transform="translate(30.405 37.352)">
            <g id="Group_1617" data-name="Group 1617">
              <path id="Path_20346" data-name="Path 20346" d="M1737.542,547.069V554.4H1729.2v-7.327h8.338m.633-.633h-9.6v8.593h9.6v-8.593Z" transform="translate(-1728.571 -546.436)" fill="#98d09a"/>
            </g>
          </g>
          <g id="Group_1620" data-name="Group 1620">
            <g id="Group_1619" data-name="Group 1619">
              <path id="Path_20347" data-name="Path 20347" d="M1737.542,509.717v36.361H1698.8V516.061h20.7v-6.344h18.044m-7.708,7.908h4.271v-4.272h-4.271v4.272m-6.9,0h4.271v-4.272h-4.271v4.272m6.9,6.4h4.271v-4.272h-4.271v4.272m-6.9,0h4.271v-4.272h-4.271v4.272m-6.9,0h4.272v-4.272h-4.272v4.272m-6.9,0h4.271v-4.272h-4.271v4.272m-6.9,0h4.272v-4.272h-4.272v4.272m27.6,6.395h4.271v-4.272h-4.271v4.272m-6.9,0h4.271v-4.272h-4.271v4.272m-6.9,0h4.272v-4.272h-4.272v4.272m-6.9,0h4.271v-4.272h-4.271v4.272m-6.9,0h4.272v-4.272h-4.272v4.272m27.6,6.394h4.271v-4.271h-4.271v4.271m-6.9,0h4.271v-4.271h-4.271v4.271m-6.9,0h4.272v-4.271h-4.272v4.271m-6.9,0h4.271v-4.271h-4.271v4.271m-6.9,0h4.272v-4.271h-4.272v4.271m27.6,6.395h4.271v-4.271h-4.271V543.2m-6.9,0h4.271v-4.271h-4.271V543.2m-6.9,0h4.272v-4.271h-4.272V543.2m-6.9,0h4.271v-4.271h-4.271V543.2m-6.9,0h4.272v-4.271h-4.272V543.2m35.939-34.12h-19.31v6.344h-20.7v31.283h40.009V509.084Zm-7.708,4.9h3.005v3h-3.005v-3Zm-6.9,0h3.005v3h-3.005v-3Zm6.9,6.4h3.005v3h-3.005v-3Zm-6.9,0h3.005v3h-3.005v-3Zm-6.9,0h3.005v3h-3.005v-3Zm-6.9,0h3.005v3h-3.005v-3Zm-6.9,0h3v3h-3v-3Zm27.6,6.394h3.005v3.005h-3.005v-3.005Zm-6.9,0h3.005v3.005h-3.005v-3.005Zm-6.9,0h3.005v3.005h-3.005v-3.005Zm-6.9,0h3.005v3.005h-3.005v-3.005Zm-6.9,0h3v3.005h-3v-3.005Zm27.6,6.4h3.005v3.005h-3.005v-3.005Zm-6.9,0h3.005v3.005h-3.005v-3.005Zm-6.9,0h3.005v3.005h-3.005v-3.005Zm-6.9,0h3.005v3.005h-3.005v-3.005Zm-6.9,0h3v3.005h-3v-3.005Zm27.6,6.395h3.005v3.005h-3.005v-3.005Zm-6.9,0h3.005v3.005h-3.005v-3.005Zm-6.9,0h3.005v3.005h-3.005v-3.005Zm-6.9,0h3.005v3.005h-3.005v-3.005Zm-6.9,0h3v3.005h-3v-3.005Z" transform="translate(-1698.166 -509.084)" fill="#98d09a"/>
            </g>
          </g>
          <g id="Group_1622" data-name="Group 1622" transform="translate(0 37.352)">
            <g id="Group_1621" data-name="Group 1621">
              <path id="Path_20348" data-name="Path 20348" d="M1712.673,547.069V554.4H1698.8v-7.327h13.873m.634-.633h-15.141v8.593h15.141v-8.593Z" transform="translate(-1698.166 -546.436)" fill="#98d09a"/>
            </g>
          </g>
          <g id="Group_1624" data-name="Group 1624" transform="translate(0 45.67)">
            <g id="Group_1623" data-name="Group 1623">
              <path id="Path_20349" data-name="Path 20349" d="M1712.673,555.387v1.241H1698.8v-1.241h13.873m.634-.633h-15.141v2.508h15.141v-2.508Z" transform="translate(-1698.166 -554.754)" fill="#98d09a"/>
            </g>
          </g>
          <g id="Group_1626" data-name="Group 1626" transform="translate(14.866 45.67)">
            <g id="Group_1625" data-name="Group 1625">
              <path id="Path_20350" data-name="Path 20350" d="M1728.213,555.387v1.241h-14.548v-1.241h14.548m.633-.633h-15.814v2.508h15.814v-2.508Z" transform="translate(-1713.032 -554.754)" fill="#98d09a"/>
            </g>
          </g>
        </g>
        <g id="Group_1631" data-name="Group 1631" transform="translate(681.651 52.274)">
          <g id="Group_1630" data-name="Group 1630">
            <path id="Path_20352" data-name="Path 20352" d="M1492.811,12.7v1.138h-.566v3.9h.668v-2.91h14.366l6.061,7.108h-44.9l6.06-7.108h14.133v2.91h.752v-3.9h-.565V12.7h3.995m19.5,9.733v26.04h-19.006V37.682l.433-2.13h-5.905l.433,2.13V48.473h-18.8V22.433h42.848M1504.8,32.651h3.847v-6.69H1504.8v6.69m-7.959,0h3.847v-6.69h-3.847v6.69m-7.959,0h3.847v-6.69h-3.847v6.69m-7.958,0h3.846v-6.69h-3.846v6.69m-7.959,0h3.846v-6.69h-3.846v6.69M1504.8,44.1h3.847v-6.69H1504.8V44.1m-7.959,0h3.847v-6.69h-3.847V44.1m-15.917,0h3.846v-6.69h-3.846V44.1m-7.959,0h3.846v-6.69h-3.846V44.1m19.842,1.022v.929h-4.047v-.929h4.047m0,1.921v.929h-4.047v-.929h4.047m.634-34.981h-5.261V14.2H1474.2l-.19.222-6.06,7.108-.89,1.045h1.766V49.106h20.07v-.5h3.773v.5h20.272V22.571h1.767l-.89-1.045-6.061-7.108-.189-.222h-14.128V12.067Zm11.992,14.527h2.58v5.424h-2.58V26.594Zm-7.958,0h2.58v5.424h-2.58V26.594Zm-7.959,0h2.58v5.424h-2.58V26.594Zm-7.959,0h2.58v5.424h-2.58V26.594Zm-7.959,0h2.58v5.424h-2.58V26.594Zm15.008,9.592h4.355l-.279,1.37-.012.062v6.876H1488.9V37.618l-.013-.062-.278-1.37Zm16.827,1.862h2.58v5.424h-2.58V38.048Zm-7.958,0h2.58v5.424h-2.58V38.048Zm-15.918,0h2.58v5.424h-2.58V38.048Zm-7.959,0h2.58v5.424h-2.58V38.048Z" transform="translate(-1467.064 -12.067)" fill="#98d09a"/>
          </g>
        </g>
        <g id="Group_1638" data-name="Group 1638" transform="translate(0 57.794)">
          <g id="Group_1633" data-name="Group 1633" transform="translate(15.208 1.348)">
            <g id="Group_1632" data-name="Group 1632">
              <path id="Path_20353" data-name="Path 20353" d="M1349.393,310.9v1.607h-22.426V310.9h22.426m.633-.633h-23.692v2.873h23.692v-2.873Z" transform="translate(-1326.334 -310.272)" fill="#98d09a"/>
            </g>
          </g>
          <g id="Group_1635" data-name="Group 1635">
            <g id="Group_1634" data-name="Group 1634">
              <path id="Path_20354" data-name="Path 20354" d="M1326.206,309.558l.073,24.607h-14.445l-.073-24.607h14.445m-5.813,11.711h4.065v-7.853h-4.065v7.853m-6.609,0h4.065v-7.853h-4.065v7.853m6.609,10.288h4.065V323.7h-4.065v7.853m-6.609,0h4.065V323.7h-4.065v7.853m13.054-22.633h-15.712l0,.636.073,24.607v.631h15.712l0-.635-.072-24.608,0-.632Zm-5.811,5.125h2.8v6.587h-2.8v-6.587Zm-6.61,0h2.8v6.587h-2.8v-6.587Zm6.61,10.288h2.8v6.587h-2.8v-6.587Zm-6.61,0h2.8v6.587h-2.8v-6.587Z" transform="translate(-1311.126 -308.924)" fill="#98d09a"/>
            </g>
          </g>
          <g id="Group_1637" data-name="Group 1637" transform="translate(6.432 8.392)">
            <g id="Group_1636" data-name="Group 1636">
              <path id="Path_20355" data-name="Path 20355" d="M1349.393,313.184v32.679h-35.442V334.919h13.082l-.064-21.735h22.424m-6.534,8.085h2.982V315.22h-2.982v6.049m-3.974,0h2.982V315.22h-2.982v6.049m-6.7,0h2.982V315.22h-2.982v6.049m-3.974,0h2.982V315.22h-2.982v6.049m14.648,10.288h2.982v-6.049h-2.982v6.049m-3.974,0h2.982v-6.049h-2.982v6.049m-6.7,0h2.982v-6.049h-2.982v6.049m-3.974,0h2.982v-6.049h-2.982v6.049m10.674,11.577h6.956v-7.269h-6.956v7.269m-10.674,0h6.956v-7.269h-6.956v7.269m-10.709,0h6.956v-7.269H1317.5v7.269m21.383,1.737h6.956v-.745h-6.956v.745m-10.674,0h6.956v-.745h-6.956v.745m-10.709,0h6.956v-.745H1317.5v.745m32.524-32.321h-23.692l0,.635.062,21.1h-13.081V346.5h36.709V312.55Zm-6.534,3.3h1.716v4.783h-1.716v-4.783Zm-3.974,0h1.716v4.783h-1.716v-4.783Zm-6.7,0h1.716v4.783h-1.716v-4.783Zm-3.974,0h1.716v4.783h-1.716v-4.783Zm14.648,10.288h1.716v4.783h-1.716v-4.783Zm-3.974,0h1.716v4.783h-1.716v-4.783Zm-6.7,0h1.716v4.783h-1.716v-4.783Zm-3.974,0h1.716v4.783h-1.716v-4.783Zm10.674,10.357h5.69v6h-5.69v-6Zm-10.674,0h5.69v6h-5.69v-6Zm-10.709,0h5.69v6h-5.69v-6Z" transform="translate(-1313.317 -312.55)" fill="#98d09a"/>
            </g>
          </g>
        </g>
        <g id="Group_1651" data-name="Group 1651" transform="translate(331.526)">
          <g id="Group_1640" data-name="Group 1640" transform="translate(13.373 45.431)">
            <g id="Group_1639" data-name="Group 1639">
              <path id="Path_20356" data-name="Path 20356" d="M1248.447,234.6v5.84H1241.1V234.6h7.349m.633-.633h-8.615v7.107h8.615v-7.107Z" transform="translate(-1240.465 -233.972)" fill="#98d09a"/>
            </g>
          </g>
          <g id="Group_1642" data-name="Group 1642" transform="translate(8.398 43.664)">
            <g id="Group_1641" data-name="Group 1641">
              <path id="Path_20357" data-name="Path 20357" d="M1238.086,232.839a1.935,1.935,0,0,1,1.962,2.012v5.594h-3.925v-5.594a1.921,1.921,0,0,1,1.963-2.012m0-.634a2.537,2.537,0,0,0-2.6,2.646v6.228h5.192v-6.228a2.566,2.566,0,0,0-2.6-2.646Z" transform="translate(-1235.49 -232.205)" fill="#98d09a"/>
            </g>
          </g>
          <g id="Group_1644" data-name="Group 1644" transform="translate(0 45.431)">
            <g id="Group_1643" data-name="Group 1643">
              <path id="Path_20358" data-name="Path 20358" d="M1235.074,234.6v5.84h-7.349V234.6h7.349m.633-.633h-8.615v7.107h8.615v-7.107Z" transform="translate(-1227.092 -233.972)" fill="#98d09a"/>
            </g>
          </g>
          <g id="Group_1646" data-name="Group 1646" transform="translate(13.373 43.793)">
            <g id="Group_1645" data-name="Group 1645">
              <path id="Path_20359" data-name="Path 20359" d="M1248.447,232.968v.856H1241.1v-.856h7.349m.633-.634h-8.615v2.123h8.615v-2.123Z" transform="translate(-1240.465 -232.334)" fill="#98d09a"/>
            </g>
          </g>
          <g id="Group_1648" data-name="Group 1648" transform="translate(0 43.793)">
            <g id="Group_1647" data-name="Group 1647">
              <path id="Path_20360" data-name="Path 20360" d="M1235.074,232.968v.856h-7.349v-.856h7.349m.633-.634h-8.615v2.123h8.615v-2.123Z" transform="translate(-1227.092 -232.334)" fill="#98d09a"/>
            </g>
          </g>
          <g id="Group_1650" data-name="Group 1650">
            <g id="Group_1649" data-name="Group 1649">
              <path id="Path_20361" data-name="Path 20361" d="M1248.608,189.174v42.953h-20.883V189.174h20.883m-3.891,5.813h2.4v-3.378h-2.4v3.378m-3.875,0h2.4v-3.378h-2.4v3.378m-3.875,0h2.4v-3.378h-2.4v3.378m-3.875,0h2.4v-3.378h-2.4v3.378m-3.875,0h2.4v-3.378h-2.4v3.378m15.5,5.058h2.4v-3.378h-2.4v3.378m-3.875,0h2.4v-3.378h-2.4v3.378m-3.875,0h2.4v-3.378h-2.4v3.378m-3.875,0h2.4v-3.378h-2.4v3.378m-3.875,0h2.4v-3.378h-2.4v3.378m15.5,5.058h2.4v-3.378h-2.4V205.1m-3.875,0h2.4v-3.378h-2.4V205.1m-3.875,0h2.4v-3.378h-2.4V205.1m-3.875,0h2.4v-3.378h-2.4V205.1m-3.875,0h2.4v-3.378h-2.4V205.1m15.5,5.058h2.4v-3.378h-2.4v3.378m-3.875,0h2.4v-3.378h-2.4v3.378m-3.875,0h2.4v-3.378h-2.4v3.378m-3.875,0h2.4v-3.378h-2.4v3.378m-3.875,0h2.4v-3.378h-2.4v3.378m15.5,5.058h2.4v-3.378h-2.4v3.378m-3.875,0h2.4v-3.378h-2.4v3.378m-3.875,0h2.4v-3.378h-2.4v3.378m-3.875,0h2.4v-3.378h-2.4v3.378m-3.875,0h2.4v-3.378h-2.4v3.378m15.5,5.058h2.4V216.9h-2.4v3.378m-3.875,0h2.4V216.9h-2.4v3.378m-3.875,0h2.4V216.9h-2.4v3.378m-3.875,0h2.4V216.9h-2.4v3.378m-3.875,0h2.4V216.9h-2.4v3.378m15.5,5.058h2.4v-3.378h-2.4v3.378m-3.875,0h2.4v-3.378h-2.4v3.378m-3.875,0h2.4v-3.378h-2.4v3.378m-3.875,0h2.4v-3.378h-2.4v3.378m-3.875,0h2.4v-3.378h-2.4v3.378m15.5,5.058h2.4v-3.378h-2.4v3.378m-3.875,0h2.4v-3.378h-2.4v3.378m-3.875,0h2.4v-3.378h-2.4v3.378m-3.875,0h2.4v-3.378h-2.4v3.378m-3.875,0h2.4v-3.378h-2.4v3.378m20.024-41.852h-22.149v44.22h22.149v-44.22Zm-3.891,3.7h1.132v2.112h-1.132v-2.112Zm-3.875,0h1.133v2.112h-1.133v-2.112Zm-3.875,0h1.133v2.112H1237.6v-2.112Zm-3.874,0h1.132v2.112h-1.132v-2.112Zm-3.875,0h1.132v2.112h-1.132v-2.112Zm15.5,5.058h1.132v2.112h-1.132V197.3Zm-3.875,0h1.133v2.112h-1.133V197.3Zm-3.875,0h1.133v2.112H1237.6V197.3Zm-3.874,0h1.132v2.112h-1.132V197.3Zm-3.875,0h1.132v2.112h-1.132V197.3Zm15.5,5.058h1.132v2.112h-1.132v-2.112Zm-3.875,0h1.133v2.112h-1.133v-2.112Zm-3.875,0h1.133v2.112H1237.6v-2.112Zm-3.874,0h1.132v2.112h-1.132v-2.112Zm-3.875,0h1.132v2.112h-1.132v-2.112Zm15.5,5.058h1.132v2.112h-1.132v-2.112Zm-3.875,0h1.133v2.112h-1.133v-2.112Zm-3.875,0h1.133v2.112H1237.6v-2.112Zm-3.874,0h1.132v2.112h-1.132v-2.112Zm-3.875,0h1.132v2.112h-1.132v-2.112Zm15.5,5.058h1.132v2.112h-1.132v-2.112Zm-3.875,0h1.133v2.112h-1.133v-2.112Zm-3.875,0h1.133v2.112H1237.6v-2.112Zm-3.874,0h1.132v2.112h-1.132v-2.112Zm-3.875,0h1.132v2.112h-1.132v-2.112Zm15.5,5.058h1.132v2.112h-1.132v-2.112Zm-3.875,0h1.133v2.112h-1.133v-2.112Zm-3.875,0h1.133v2.112H1237.6v-2.112Zm-3.874,0h1.132v2.112h-1.132v-2.112Zm-3.875,0h1.132v2.112h-1.132v-2.112Zm15.5,5.058h1.132V224.7h-1.132V222.59Zm-3.875,0h1.133V224.7h-1.133V222.59Zm-3.875,0h1.133V224.7H1237.6V222.59Zm-3.874,0h1.132V224.7h-1.132V222.59Zm-3.875,0h1.132V224.7h-1.132V222.59Zm15.5,5.058h1.132v2.112h-1.132v-2.112Zm-3.875,0h1.133v2.112h-1.133v-2.112Zm-3.875,0h1.133v2.112H1237.6v-2.112Zm-3.874,0h1.132v2.112h-1.132v-2.112Zm-3.875,0h1.132v2.112h-1.132v-2.112Z" transform="translate(-1227.092 -188.541)" fill="#98d09a"/>
            </g>
          </g>
        </g>
        <g id="Group_1656" data-name="Group 1656" transform="translate(364.718 103.818)">
          <g id="Group_1653" data-name="Group 1653" transform="translate(13.629)">
            <g id="Group_1652" data-name="Group 1652">
              <path id="Path_20362" data-name="Path 20362" d="M1618.814,333.653l15.679,16.078v26.04h-31.357v-26.04l15.678-16.078m2.039,16.078h1.808v-6.69h-1.808v6.69m-3.466,0h2.855v-6.69h-2.855v6.69m-2.419,0h1.808v-6.69h-1.808v6.69m13.623,10.218h1.764v-6.69h-1.764v6.69m-3.511,0h2.855v-6.69h-2.855v6.69m-2.419,0h1.764v-6.69h-1.764v6.69m-12.677-1.778h3.134v-3.134h-3.134v3.134m-1.778,14.75h6.69v-10.54h-6.69v10.54m20.385-1.907h1.764v-6.69h-1.764v6.69m-3.511,0h2.855v-6.69h-2.855v6.69m-2.419,0h1.764v-6.69h-1.764v6.69m-14.455,3.828h6.69v-.992h-6.69v.992m10.608-42.1-.453.465-15.678,16.078-.18.184V376.4h32.623V349.473l-.18-.184-15.678-16.078-.454-.465Zm2.672,10.928h.542V349.1h-.542v-5.424Zm-3.466,0h1.589V349.1h-1.589v-5.424Zm-2.419,0h.542V349.1h-.542v-5.424Zm13.624,10.218h.5v5.424h-.5v-5.424Zm-3.511,0h1.588v5.424h-1.588v-5.424Zm-2.42,0h.5v5.424h-.5v-5.424Zm-12.677,1.778h1.868v1.868h-1.868V355.67Zm-1.778,7.344h5.424v9.273h-5.424v-9.273Zm20.386,1.944h.5v5.423h-.5v-5.423Zm-3.511,0h1.588v5.423h-1.588v-5.423Zm-2.42,0h.5v5.423h-.5v-5.423Z" transform="translate(-1602.503 -332.746)" fill="#98d09a"/>
            </g>
          </g>
          <g id="Group_1655" data-name="Group 1655" transform="translate(0 19.018)">
            <g id="Group_1654" data-name="Group 1654">
              <path id="Path_20363" data-name="Path 20363" d="M1597.2,352.644l3.868,3.683v18.348h-11.566V360.168l7.7-7.524m-5.681,19.191h5.127V361.3h-5.127v10.54m7.592-1.917h1.957v-6.69h-1.957v6.69m-7.592,3.838h5.127v-.991h-5.127v.991m5.676-21.992-.437.427-7.7,7.524-.191.186v15.407h12.832V356.056l-.2-.187-3.867-3.684-.442-.421Zm-5.043,10.164h3.86V371.2h-3.86v-9.274Zm7.592,1.933h.69v5.424h-.69v-5.424Z" transform="translate(-1588.874 -351.764)" fill="#98d09a"/>
            </g>
          </g>
        </g>
      </g>
      <g id="Group_1732" data-name="Group 1732" transform="translate(843.452)">
        <g id="Group_1705" data-name="Group 1705">
          <g id="Group_1704" data-name="Group 1704">
            <path id="Path_20379" data-name="Path 20379" d="M1842.237,18.9c2.48,0,3.68,1.132,2.293,3.015-2.407,3.268-11.465,5.09-10.806,5.749a.772.772,0,0,0,.516.121c1.771,0,7.209-1.823,9.492-2.929a12.706,12.706,0,0,1-11.038,6.506c-.147,0-.3,0-.447-.007-3.416,3.467,1.447,9.67,1.447,9.67.781-.488,1.565-.923,2.342-1.329,4.139-11.47,16.084-12.42,16.21-12.427,0,0-10.793,1.773-15.016,11.825a14.026,14.026,0,0,1,5.373-1.567,2.325,2.325,0,0,1,1.693.542c1.069,1.069.468,3.881-1.025,7.065,10.066-4.225,11.824-15.016,11.824-15.016-.008.126-.958,12.071-12.425,16.211-.407.776-.841,1.561-1.33,2.342,0,0,3.843,2.424,6.966,2.424a3.686,3.686,0,0,0,2.7-.977,12.7,12.7,0,0,1,6.5-11.486c-1.264,2.612-3.637,9.179-2.808,10.009a.146.146,0,0,0,.1.047c.9,0,3.1-9.623,5.647-10.854a2.189,2.189,0,0,1,.948-.242c2.015,0,2.826,3.728.075,9.574a13.4,13.4,0,0,1-12.822,7.949,26.285,26.285,0,0,1-10.272-2.351,30.719,30.719,0,0,1-3.863,2.941,14.82,14.82,0,0,1,1.186,8.214l-.908-.13a13.867,13.867,0,0,0-1.051-7.544l-1.676,1.162v0a11.882,11.882,0,0,1,.747,6.225l-.906-.136a10.965,10.965,0,0,0-.615-5.553,69.6,69.6,0,0,0-7.538,5.717s2.735,6.43-.8,6.474c-.412-.412.567-1.248-.165-1.981a.709.709,0,0,0-.514-.24c-.354,0-.682.282-1.019.282a.611.611,0,0,1-.447-.206c-.668-.668.61-1.206-.165-1.981a.77.77,0,0,0-.555-.263c-.363,0-.689.286-1.016.286a.558.558,0,0,1-.409-.188c-.635-.634.747-1.068-.165-1.98a.953.953,0,0,0-.678-.336c-.391,0-.7.311-1,.311a.416.416,0,0,1-.3-.14c-.546-.545.657-1.158-.165-1.98a.836.836,0,0,0-.6-.289c-.373,0-.7.291-1.011.291a.5.5,0,0,1-.366-.167c-.6-.6.6-1.211-.166-1.981a1.113,1.113,0,0,0-.821-.34,8.166,8.166,0,0,0-1.057.209.137.137,0,0,1-.1-.033c.128-1.394,1.152-1.818,2.349-1.818a12.29,12.29,0,0,1,4.125,1.017,69.687,69.687,0,0,0,5.717-7.537,11.189,11.189,0,0,0-3.95-.734,10.553,10.553,0,0,0-1.6.122l-.136-.906a11.507,11.507,0,0,1,1.744-.132,12.086,12.086,0,0,1,4.482.875h0c.4-.574.787-1.136,1.163-1.675a13.98,13.98,0,0,0-5.612-1.186,13.687,13.687,0,0,0-1.935.138l-.129-.908a14.813,14.813,0,0,1,8.214,1.182,30.737,30.737,0,0,1,2.943-3.863s-7.449-15.083,5.6-23.093a16.306,16.306,0,0,1,7.039-1.993m-2.665,22.816a1.156,1.156,0,1,0-.818-.339,1.149,1.149,0,0,0,.818.339m2.392,2.392a1.155,1.155,0,1,0-.817-.338,1.152,1.152,0,0,0,.817.338m.273-25.842a17.1,17.1,0,0,0-7.327,2.063c-12.185,7.48-7.156,20.972-6.064,23.518a39.066,39.066,0,0,0-2.409,3.216,15.449,15.449,0,0,0-8.081-1.023l-.628.089.09.628.129.908.09.627.627-.09a13.137,13.137,0,0,1,6.485.71l-.43.619a12.589,12.589,0,0,0-4.244-.742,12.3,12.3,0,0,0-1.84.139l-.624.1.094.624.136.906.1.628.627-.1a9.981,9.981,0,0,1,1.507-.115,10.367,10.367,0,0,1,2.947.432,71.474,71.474,0,0,1-4.871,6.455,12,12,0,0,0-3.968-.9c-2.4,0-2.9,1.5-2.979,2.393l-.028.3.211.21a.753.753,0,0,0,.549.219,1.809,1.809,0,0,0,.518-.1,2.063,2.063,0,0,1,.539-.108.48.48,0,0,1,.373.155c.109.109.113.113-.016.433a1.311,1.311,0,0,0,.182,1.548,1.135,1.135,0,0,0,.814.353,1.767,1.767,0,0,0,.717-.19,1.061,1.061,0,0,1,.294-.1c.038,0,.105.054.155.1.142.142.153.153.009.5a1.244,1.244,0,0,0,.156,1.479,1.044,1.044,0,0,0,.753.325,1.613,1.613,0,0,0,.7-.2.95.95,0,0,1,.3-.11.445.445,0,0,1,.23.151c.169.169.169.169.031.435a1.2,1.2,0,0,0,.134,1.545,1.189,1.189,0,0,0,.857.373,1.822,1.822,0,0,0,.73-.188,1.151,1.151,0,0,1,.286-.1c.012,0,.05.021.107.078a.291.291,0,0,1,.074.1,1.188,1.188,0,0,1-.1.264,1.318,1.318,0,0,0,.189,1.62,1.233,1.233,0,0,0,.895.392,1.875,1.875,0,0,0,.742-.188,1.215,1.215,0,0,1,.277-.094.358.358,0,0,1,.066.055c.12.12.135.192,0,.623a1.255,1.255,0,0,0,.164,1.358l.188.189.267,0a2.239,2.239,0,0,0,1.972-.989c1.061-1.626.016-4.787-.432-5.957a71.469,71.469,0,0,1,6.46-4.875,10.274,10.274,0,0,1,.32,4.454l-.1.628.628.094.906.136.625.094.095-.624a12.518,12.518,0,0,0-.606-6.084l.619-.43a13.221,13.221,0,0,1,.714,6.484l-.09.627.627.089.908.13.627.09.089-.628a15.438,15.438,0,0,0-1.027-8.081,38.485,38.485,0,0,0,3.213-2.4,26.694,26.694,0,0,0,10.136,2.225,14.082,14.082,0,0,0,13.391-8.3c1.888-4.013,2.35-7.618,1.208-9.416a2.157,2.157,0,0,0-1.852-1.07,2.814,2.814,0,0,0-1.223.3c-1.639.792-2.884,3.861-4.342,7.791-.115.31-.237.639-.359.963a46.255,46.255,0,0,1,2.6-7.109l.942-1.948-1.844,1.133a13.343,13.343,0,0,0-6.8,11.742,3.206,3.206,0,0,1-2.073.627c-2.241,0-4.956-1.376-6.09-2.012.291-.489.585-1.015.9-1.611,11.725-4.388,12.6-16.56,12.61-16.683l-1.257-.141c-.016.1-1.642,9.409-9.956,13.83.85-2.184,1.521-4.932.23-6.224a2.915,2.915,0,0,0-2.141-.728,12.043,12.043,0,0,0-4.081.956c4.424-8.317,13.728-9.939,13.827-9.955l-.138-1.257c-.123.007-12.341,1.007-16.685,12.612-.61.322-1.152.626-1.661.93-.954-1.39-3.524-5.63-1.346-8.185h.175a13.256,13.256,0,0,0,11.577-6.808l1.133-1.846-1.949.945a36.429,36.429,0,0,1-3.878,1.527c2.176-.908,4.391-2.067,5.463-3.523a2.432,2.432,0,0,0,.515-2.638c-.451-.894-1.629-1.386-3.318-1.386Zm-2.665,22.816a.522.522,0,1,1,.37-.153.519.519,0,0,1-.37.153Zm2.392,2.393a.522.522,0,1,1,.524-.523.524.524,0,0,1-.524.523Z" transform="translate(-1811.571 -18.265)" fill="#98d09a"/>
          </g>
        </g>
      </g>
    </g>
    <g id="Group_1814" data-name="Group 1814" transform="translate(1699.364 352.977)">
      <g id="Group_1813" data-name="Group 1813">
        <g id="Group_1812" data-name="Group 1812">
          <g id="Group_1811" data-name="Group 1811">
            <g id="Group_1810" data-name="Group 1810">
              <g id="Group_1809" data-name="Group 1809">
                <path id="Path_20418" data-name="Path 20418" d="M1916.271,587.033h-34.015V553.02h34.015v2.4l4.866-4.866,5.472,5.472-10.338,10.339Zm-33.377-.638h32.739V567l-14.228,14.229-14.2-14.206,5.473-5.473,8.731,8.732,14.228-14.227v-2.4h-32.739Zm5.208-19.372,13.3,13.3,14.228-14.227v-9.143l-14.228,14.229-8.731-8.732Zm28.169-10.7v9.143l9.436-9.438-4.57-4.569Z" transform="translate(-1882.256 -550.552)" fill="#98d09a"/>
              </g>
            </g>
          </g>
        </g>
      </g>
    </g>
  </g>
</svg>
