<svg height='100px' width='100px'  fill="#000000" xmlns="http://www.w3.org/2000/svg" xmlns:xlink="http://www.w3.org/1999/xlink" version="1.1" x="0px" y="0px" viewBox="0 0 100 100" enable-background="new 0 0 100 100" xml:space="preserve"><g><g><path d="M27.6,79.6l-7.1-7.1c-1.2-1.2-1.2-3.1,0-4.3l21.3-21.3c-5-2.4-11.2-1.6-15.3,2.6L14.5,61.3c-5.2,5.2-5.2,13.7,0,18.9    l5.3,5.3c5.2,5.2,13.7,5.2,18.9,0l11.9-11.9c4.1-4.1,5-10.3,2.6-15.3L31.9,79.6C30.7,80.8,28.8,80.8,27.6,79.6z"></path><path d="M61.3,14.5L49.4,26.4c-4.1,4.1-5,10.3-2.6,15.3l21.3-21.3c1.2-1.2,3.1-1.2,4.3,0l7.1,7.1c1.2,1.2,1.2,3.1,0,4.3L58.3,53.1    c5,2.4,11.2,1.6,15.3-2.6l11.9-11.9c5.2-5.2,5.2-13.7,0-18.9l-5.3-5.3C75,9.2,66.6,9.2,61.3,14.5z"></path><path d="M34.7,65.3c1.8,1.8,4.7,1.8,6.6,0l24.1-24.1c1.8-1.8,1.8-4.7,0-6.6c-1.8-1.8-4.7-1.8-6.6,0L34.7,58.8    C32.9,60.6,32.9,63.5,34.7,65.3z"></path></g></g></svg>