<svg xmlns="http://www.w3.org/2000/svg" viewBox="0 0 89.258 44.25"><defs><style>.a{fill:#fff;}</style></defs><g transform="translate(44.629 22.125)"><path class="a" d="M89.258,35.076l-.338-4.13-1.375-3.677-2.555-3.15-3.361-.95-1.287.891,1.854,2.4.169-1.611,2.193,1.176.193,3.341.6.155.636-1,.593,1.232L86.4,32.085l-4.666,1.424-1.182.879-.765.085.883-.819-3.439.176-3.1-1.706L73.581,28.2l-2.689-.566-.6-.7,1.5-.636-1.287-1.9L68.479,20.81l-1.424-1.424-2.236-.948-.813-.948-1.287.406.948.406.339.745-1.287.135-.339-.745-.406.406L61.3,18.3l.474-.542L60.687,17.7l.745-.948,1.151-.474-.61-1.694.542-1.016.2.813H63.8l-.474-.745.135-.542h.948l.339-.61,1.016-.542-1.147-1.152,3.725-1.219.948-1.016v.812l.745-.2.339-1.151.881-.542V6.516l-.881.271V6.044h-.948l-.61,1.016-1.826.27.541-.61L67.159,6.6l.348-.341-1.7-4.013.332-.128L65.827.64h-.911l-1-.64L60.2,1.166,59.5,2.38l-1.155-.121-1.884.71L56.3,4.439l-.486-.354L53.946,5.449H4.82L0,26.7H52.091l-.135,3.78h1.638V32.8l.647-1.146V29.834H52.626l.122-3.413,1.438-.731.745.61,5.352-2.439-.476-.951.678-.542.746.745,1.151-.61h.881l1.355,1.761.745-.271.406,1.9,3.3.5.247.387,1.223,1.439,2.46.518.533,3.8,3.541,1.952,1.844-.095-.3.275.255.559,1.918-.213,1.177-.9,5.033-1.535.226-2.949L86.062,27.19l-.722,1.134-.156-2.7L82.124,23.98l2.5.706,2.34,2.861,1.32,3.5.14,1.708-.169-.462-1.2,2.192,1.145,1.145c-.028.224-.089.676-.185,1.2-.1.808-.24,1.729-.3,2.141l-.238.051L88,36.557l-.78-.78-8.848,1.194-.54.877L77.4,37.9l.186-.434-.519-.363-1.211,1.14-.5,1.5-3.649.321-.611.318.194-.486.222-2.829.588-1.614-1.5-1.938-3.5,3.927-2.42.336-1.934,1.77,1.217,1.391.63-.262L63.648,39.6l1.318-1.208,2.457-.341,3.139-3.523.8,1.039-.48,1.321L70.667,39.7l-.523,1.308.462.4,1.226-.709,4-.351.56-1.683,1.83-.214.544-.884,8.227-1.11.3.3-.679,3.1,1.657-.356.035-.219s.2-1.292.336-2.362c.139-.75.2-1.354.207-1.38l.016-.154-.186-.186ZM59.069,8.821H57.912l-.745-.27-.61.948-.881.61V11.4l-1.626-.2-.812-.881H52.087l-.678.881h-.948L49.377,9.566l-1.284,1.016.135,1.355-.678.542.339.745-1.084.065-1.221-.606-.339,2.032,1.355.813-.406,1.287,1.626,2.032-.881.678v1.694l.746.2.135,1.694,1.694,1.694.169,1.244H.81L5.338,6.1H54.157l1.656-1.21,1,.732.243-2.182,1.37-.516,1.42.149.785-1.36,3.189-1,.9.58H65.3l.09.422-.873.336L64.786,3.5l.692-.382L66.741,6.1l-.271.265-.156-.052-.27-.747-.542.2-.341-.745L61.841,6.586l-.065,1.626-1.219-.406ZM65.5,2.361l-.241.133-.006-.037ZM69.839,26.4l-.018-.027.351-.818.745.542-.7.751Zm11.883-1.613-.449-.58.475-.329.068.02Zm6.126,9.585.284-.518.464,1.266Zm-49.1,9.611v0h0ZM8.263,35.509,3.385,27.99H.405V43.976H3.182V32.529L8.194,39.98h.065l5.013-7.519V43.908h2.777V27.987H13.137Zm17.882-7.654L19.1,43.976h2.848l1.626-3.861h7.516l1.626,3.861H35.7L28.719,27.855Zm-1.49,9.754,2.709-6.367,2.777,6.367Zm32.487-1.894-.271.226.027.536L58.828,39.1l.248,1.3.737.42L59.45,38.9a.318.318,0,0,0-.057-.131Zm-12.1-7.721h-6.3V43.976h2.847V38.827h3.183c3.522,0,6.367-1.9,6.367-5.419v-.065C51.141,30.161,48.77,27.993,45.045,27.993ZM48.3,33.411c0,1.694-1.355,2.848-3.455,2.848l-3.251-.005V30.5h3.251c2.1,0,3.455.948,3.455,2.848Zm13.478,8.258a5.43,5.43,0,0,1-5.283-5.689v-.065a5.372,5.372,0,0,1,5.283-5.622,6.486,6.486,0,0,1,4.471,1.964l1.829-2.1a8.274,8.274,0,0,0-6.234-2.507,8.126,8.126,0,0,0-8.264,7.986q0,.139,0,.278v.065a8.056,8.056,0,0,0,7.841,8.264q.143,0,.287,0h0a8.268,8.268,0,0,0,6.5-2.847L66.382,39.57a6.267,6.267,0,0,1-4.607,2.1Z" transform="translate(-44.629 -22.125)"/></g></svg>