<svg xmlns="http://www.w3.org/2000/svg" viewBox="0 0 538.909 1419.943" preserveAspectRatio="none slice">
  <defs>
    <style>
      .cls-1, .cls-4 {
        fill: none;
        stroke: #00c7b3;
      }

      .cls-1 {
        stroke-miterlimit: 10;
        stroke-width: 0.75px;
      }

      .cls-2, .cls-3 {
        fill: #00c7b3;
      }

      .cls-2 {
        opacity: 0.1;
      }

      .cls-3 {
        opacity: 0.5;
      }
    </style>
  </defs>
  <g id="Group_1027" data-name="Group 1027" transform="translate(-88.625 225)">
    <g id="Group_1016" data-name="Group 1016" transform="translate(89.6 269)">
      <g id="Group_1014" data-name="Group 1014" transform="translate(0.4 236.701)">
        <path id="Path_19623" data-name="Path 19623" class="cls-1" d="M264.1,190.142.4,83.3V296.985Z" transform="translate(-0.4 -83.3)"/>
      </g>
      <path id="Path_19624" data-name="Path 19624" class="cls-2" d="M360,189.558,96.3,83V296.4Z" transform="translate(176.605 152.849)"/>
      <path id="Path_19625" data-name="Path 19625" class="cls-3" d="M264.1,106.842.4,0V213.685Z" transform="translate(0)"/>
      <path id="Path_19626" data-name="Path 19626" class="cls-4" d="M360,107.158,96.3.6V214Z" transform="translate(176.605 1.105)"/>
    </g>
    <g id="Group_1018" data-name="Group 1018" transform="translate(89.6 -225)">
      <g id="Group_1014-2" data-name="Group 1014" transform="translate(0.4 236.701)">
        <path id="Path_19623-2" data-name="Path 19623" class="cls-1" d="M264.1,190.142.4,83.3V296.985Z" transform="translate(-0.4 -83.3)"/>
      </g>
      <path id="Path_19624-2" data-name="Path 19624" class="cls-2" d="M360,189.558,96.3,83V296.4Z" transform="translate(176.605 152.849)"/>
      <path id="Path_19625-2" data-name="Path 19625" class="cls-3" d="M264.1,106.842.4,0V213.685Z" transform="translate(0)"/>
      <path id="Path_19626-2" data-name="Path 19626" class="cls-4" d="M360,107.158,96.3.6V214Z" transform="translate(176.605 1.105)"/>
    </g>
    <g id="Group_1017" data-name="Group 1017" transform="translate(88.6 744)">
      <g id="Group_1014-3" data-name="Group 1014" transform="translate(0.4 236.701)">
        <path id="Path_19623-3" data-name="Path 19623" class="cls-1" d="M264.1,190.142.4,83.3V296.985Z" transform="translate(-0.4 -83.3)"/>
      </g>
      <path id="Path_19624-3" data-name="Path 19624" class="cls-2" d="M360,189.558,96.3,83V296.4Z" transform="translate(176.605 152.849)"/>
      <path id="Path_19625-3" data-name="Path 19625" class="cls-3" d="M264.1,106.842.4,0V213.685Z" transform="translate(0)"/>
      <path id="Path_19626-3" data-name="Path 19626" class="cls-4" d="M360,107.158,96.3.6V214Z" transform="translate(176.605 1.105)"/>
    </g>
  </g>
</svg>
